<svg xmlns="http://www.w3.org/2000/svg" xmlns:xlink="http://www.w3.org/1999/xlink" version="1.1" x="0px" y="0px" viewBox="0 0 128 160" enable-background="new 0 0 128 128" xml:space="preserve"><g><path d="M103.3,105.1c-0.1-0.2-0.4-0.4-0.7-0.4H86.8c-0.2-0.9-1-1.6-2-1.6H75c-1,0-1.8,0.7-2,1.6H37c-0.3,0-0.5,0.1-0.6,0.3   c-3.1,4.8-3.1,11,0,15.7c0.1,0.2,0.4,0.3,0.6,0.3h35.9v1.1c0,0.3,0.2,0.5,0.4,0.7c0.3,0.1,0.6,0.1,0.8-0.1l5.4-4.1   c0.2-0.1,0.5-0.1,0.6,0l5.4,4.1c0.1,0.1,0.3,0.2,0.5,0.2c0.1,0,0.2,0,0.3-0.1c0.3-0.1,0.4-0.4,0.4-0.7v-1.1h15.8   c0.3,0,0.5-0.2,0.7-0.4c0.1-0.2,0.1-0.5,0-0.8c-2.8-4.3-2.8-9.8,0-14.1C103.4,105.6,103.4,105.3,103.3,105.1z M37.4,119.6   c-2.5-4.1-2.5-9.3,0-13.4h35.5v13.4H37.4z M85.4,120.7l-4.2-3.2c-0.7-0.5-1.7-0.5-2.4,0l-4.2,3.2v-15.5c0-0.3,0.2-0.5,0.5-0.5h9.9   c0.3,0,0.5,0.2,0.5,0.5V120.7z M101.3,119.6H86.9v-13.4h14.4C99.1,110.4,99.1,115.4,101.3,119.6z"/><path d="M88.4,115.6h6.3c0.4,0,0.8-0.3,0.8-0.8c0-0.4-0.3-0.8-0.8-0.8h-6.3c-0.4,0-0.8,0.3-0.8,0.8   C87.6,115.2,87.9,115.6,88.4,115.6z"/><path d="M70.7,114.1h-28c-0.4,0-0.8,0.3-0.8,0.8c0,0.4,0.3,0.8,0.8,0.8h28c0.4,0,0.8-0.3,0.8-0.8C71.4,114.4,71.1,114.1,70.7,114.1   z"/><path d="M90.9,111.8h3.8c0.4,0,0.8-0.3,0.8-0.8c0-0.4-0.3-0.8-0.8-0.8h-3.8c-0.4,0-0.8,0.3-0.8,0.8   C90.1,111.4,90.5,111.8,90.9,111.8z"/><path d="M51.2,111.8h15.5c0.4,0,0.8-0.3,0.8-0.8c0-0.4-0.3-0.8-0.8-0.8H51.2c-0.4,0-0.8,0.3-0.8,0.8   C50.4,111.4,50.8,111.8,51.2,111.8z"/><path d="M79.9,109.5c-1,0-2,0.5-2.5,1.4c-0.3,0.5-0.5,1-0.5,1.6c0,0.9,0.4,1.7,1,2.2c0.5,0.5,1.2,0.7,2,0.7c0.7,0,1.4-0.3,2-0.7   c0.6-0.6,1-1.4,1-2.2c0-0.6-0.2-1.1-0.4-1.6C81.9,110,81,109.5,79.9,109.5z M80.9,113.6c-0.5,0.5-1.4,0.5-2,0   c-0.3-0.3-0.5-0.7-0.5-1.1c0-0.3,0.1-0.5,0.2-0.8c0.3-0.4,0.7-0.7,1.3-0.7c0.5,0,1,0.3,1.3,0.7c0.1,0.2,0.2,0.5,0.2,0.8   C81.4,112.9,81.2,113.3,80.9,113.6z"/><path d="M21.5,82.4c0.1,0.1,0.3,0.2,0.5,0.2c0.2,0,0.4-0.1,0.5-0.2c0.3-0.3,0.3-0.8,0-1.1l-1.7-1.7c-0.3-0.3-0.8-0.3-1.1,0   c-0.3,0.3-0.3,0.8,0,1.1L21.5,82.4z"/><path d="M26.4,85.2c-0.3-0.3-0.8-0.3-1.1,0c-0.3,0.3-0.3,0.8,0,1.1l1.7,1.7c0.1,0.1,0.3,0.2,0.5,0.2c0.2,0,0.4-0.1,0.5-0.2   c0.3-0.3,0.3-0.8,0-1.1L26.4,85.2z"/><path d="M22.5,85.2c-0.3-0.3-0.8-0.3-1.1,0L19.7,87c-0.3,0.3-0.3,0.8,0,1.1c0.1,0.1,0.3,0.2,0.5,0.2c0.2,0,0.4-0.1,0.5-0.2l1.7-1.7   C22.8,86,22.8,85.5,22.5,85.2z"/><path d="M27.1,79.6l-1.7,1.7c-0.3,0.3-0.3,0.8,0,1.1c0.1,0.1,0.3,0.2,0.5,0.2c0.2,0,0.4-0.1,0.5-0.2l1.7-1.7c0.3-0.3,0.3-0.8,0-1.1   C27.9,79.3,27.4,79.3,27.1,79.6z"/><path d="M114,117.7c-0.3-0.3-0.8-0.3-1.1,0s-0.3,0.8,0,1.1l1.7,1.7c0.1,0.1,0.3,0.2,0.5,0.2c0.2,0,0.4-0.1,0.5-0.2   c0.3-0.3,0.3-0.8,0-1.1L114,117.7z"/><path d="M119.6,123.4c-0.3-0.3-0.8-0.3-1.1,0c-0.3,0.3-0.3,0.8,0,1.1l1.7,1.7c0.1,0.1,0.3,0.2,0.5,0.2c0.2,0,0.4-0.1,0.5-0.2   c0.3-0.3,0.3-0.8,0-1.1L119.6,123.4z"/><path d="M114.6,123.4l-1.7,1.7c-0.3,0.3-0.3,0.8,0,1.1c0.1,0.1,0.3,0.2,0.5,0.2c0.2,0,0.4-0.1,0.5-0.2l1.7-1.7   c0.3-0.3,0.3-0.8,0-1.1C115.4,123.1,114.9,123.1,114.6,123.4z"/><path d="M120.3,117.7l-1.7,1.7c-0.3,0.3-0.3,0.8,0,1.1c0.1,0.1,0.3,0.2,0.5,0.2c0.2,0,0.4-0.1,0.5-0.2l1.7-1.7   c0.3-0.3,0.3-0.8,0-1.1C121,117.4,120.6,117.4,120.3,117.7z"/><path d="M7.1,96.3c-0.4,0-0.8,0.3-0.8,0.8v12.7c0,0.4,0.3,0.8,0.8,0.8s0.8-0.3,0.8-0.8V97C7.8,96.6,7.5,96.3,7.1,96.3z"/><path d="M7.1,115c-0.4,0-0.8,0.3-0.8,0.8v4.6c0,0.4,0.3,0.8,0.8,0.8s0.8-0.3,0.8-0.8v-4.6C7.8,115.3,7.5,115,7.1,115z"/><path d="M117.1,24.6c0.4,0,0.8-0.3,0.8-0.8V11.1c0-0.4-0.3-0.8-0.8-0.8c-0.4,0-0.8,0.3-0.8,0.8v12.7   C116.4,24.3,116.7,24.6,117.1,24.6z"/><path d="M117.1,35.1c0.4,0,0.8-0.3,0.8-0.8v-4.6c0-0.4-0.3-0.8-0.8-0.8c-0.4,0-0.8,0.3-0.8,0.8v4.6   C116.4,34.8,116.7,35.1,117.1,35.1z"/><path d="M113,75.4c2.1,0,3.7-1.7,3.7-3.7c0-2.1-1.7-3.7-3.7-3.7c-2.1,0-3.7,1.7-3.7,3.7C109.2,73.7,110.9,75.4,113,75.4z M113,69.4   c1.2,0,2.2,1,2.2,2.2c0,1.2-1,2.2-2.2,2.2c-1.2,0-2.2-1-2.2-2.2C110.7,70.4,111.7,69.4,113,69.4z"/><path d="M24.9,119.3c-1.9,0-3.4,1.5-3.4,3.4c0,1.9,1.5,3.4,3.4,3.4c1.9,0,3.4-1.5,3.4-3.4C28.3,120.9,26.8,119.3,24.9,119.3z    M24.9,124.7c-1.1,0-1.9-0.9-1.9-1.9c0-1.1,0.9-1.9,1.9-1.9c1.1,0,1.9,0.9,1.9,1.9C26.8,123.8,25.9,124.7,24.9,124.7z"/><path d="M12.9,44.8c-2.1,0-3.7,1.7-3.7,3.7c0,2.1,1.7,3.7,3.7,3.7c2.1,0,3.7-1.7,3.7-3.7C16.6,46.4,14.9,44.8,12.9,44.8z    M12.9,50.7c-1.2,0-2.2-1-2.2-2.2c0-1.2,1-2.2,2.2-2.2c1.2,0,2.2,1,2.2,2.2C15.1,49.7,14.1,50.7,12.9,50.7z"/><path d="M28.8,31.1H12.1c-0.4,0-0.8,0.3-0.8,0.8c0,0.4,0.3,0.8,0.8,0.8h16.7c0.4,0,0.8-0.3,0.8-0.8C29.6,31.4,29.2,31.1,28.8,31.1z   "/><path d="M7.4,31.8c0-0.4-0.3-0.8-0.8-0.8H1.3c-0.4,0-0.8,0.3-0.8,0.8c0,0.4,0.3,0.8,0.8,0.8h5.4C7.1,32.6,7.4,32.2,7.4,31.8z"/><path d="M1.3,26.9h11.6c0.4,0,0.8-0.3,0.8-0.8c0-0.4-0.3-0.8-0.8-0.8H1.3c-0.4,0-0.8,0.3-0.8,0.8C0.5,26.5,0.8,26.9,1.3,26.9z"/><path d="M17.9,26.9h3.8c0.4,0,0.8-0.3,0.8-0.8c0-0.4-0.3-0.8-0.8-0.8h-3.8c-0.4,0-0.8,0.3-0.8,0.8C17.1,26.5,17.5,26.9,17.9,26.9z"/><path d="M99.2,89.6c-0.4,0-0.8,0.3-0.8,0.8c0,0.4,0.3,0.8,0.8,0.8h16.7c0.4,0,0.8-0.3,0.8-0.8c0-0.4-0.3-0.8-0.8-0.8H99.2z"/><path d="M121.4,91.1h5.4c0.4,0,0.8-0.3,0.8-0.8c0-0.4-0.3-0.8-0.8-0.8h-5.4c-0.4,0-0.8,0.3-0.8,0.8   C120.6,90.7,120.9,91.1,121.4,91.1z"/><path d="M126.7,95.3h-11.6c-0.4,0-0.8,0.3-0.8,0.8c0,0.4,0.3,0.8,0.8,0.8h11.6c0.4,0,0.8-0.3,0.8-0.8   C127.5,95.6,127.2,95.3,126.7,95.3z"/><path d="M110.1,95.3h-3.8c-0.4,0-0.8,0.3-0.8,0.8c0,0.4,0.3,0.8,0.8,0.8h3.8c0.4,0,0.8-0.3,0.8-0.8   C110.9,95.6,110.5,95.3,110.1,95.3z"/><path d="M44.6,79l-2.9,17.9c0,0,0,0,0,0.1c0,0,0,0,0,0.1c0,0,0,0.1,0,0.1c0,0.1,0,0.1,0,0.1c0,0,0,0.1,0.1,0.1c0,0,0,0.1,0.1,0.1   c0,0,0.1,0.1,0.1,0.1c0,0,0.1,0.1,0.1,0.1c0,0,0.1,0,0.1,0.1c0,0,0.1,0,0.1,0c0,0,0.1,0,0.1,0c0,0,0,0,0,0h20.1c0,0,0,0,0,0   c0.1,0,0.2,0,0.3-0.1c0,0,0.1,0,0.1,0c0.1,0,0.1-0.1,0.1-0.1c0,0,0-0.1,0.1-0.1c0,0,0.1-0.1,0.1-0.1c0,0,0-0.1,0-0.1   c0,0,0-0.1,0-0.1l1.4-7.7c0.1-0.4-0.2-0.8-0.6-0.9c-0.4-0.1-0.8,0.2-0.9,0.6l-1.3,7.1H43.3l2.8-17.4c0-0.2,0-0.5-0.2-0.7   C33.5,66.1,34.8,46.9,34.8,46.6c-0.2-3.6,0.5-7.1,1.9-10.4c1.8-4.2,4.7-7.7,8.4-10.4v26.3c-0.2,1.5-0.4,3.1-0.4,4.8   c0,9.5,6.1,15.5,11.4,17.6c0.3,0.1,0.7,0.3,1.2,0.4c0.2,0,0.5,0.1,0.7,0.1c1.3,0,2.4-0.6,3.1-1.6c0.7,1,1.9,1.6,3.1,1.6   c0.2,0,0.5,0,0.8-0.1c0.4-0.1,0.7-0.2,1.1-0.4c5.2-2.2,11.4-8.1,11.4-17.6c0-1.5-0.1-2.9-0.3-4.3v-30c4.8,2.1,8.9,5.8,11.5,10.6   l3.3,6c0.2,0.8,0.4,1.7,0.6,2.5l0.4,2.5c0.3,1.5,0.7,2.8,1.3,4.1l5.9,12.3c0.2,0.4,0.2,0.9-0.1,1.2c-0.2,0.4-0.6,0.6-1.1,0.6h-5   c-0.4,0-0.8,0.3-0.8,0.8v11.1c0,0.1,0,0.1,0,0.2c0,0,0.6,2.3-0.6,4c-0.7,1.1-2.1,1.8-4,2.1c-9.4,1.3-13.5-0.8-13.5-0.9   c-0.1,0-0.1,0-0.2-0.1c0,0,0,0-0.1,0c0,0,0,0,0,0c-0.1,0-0.1,0-0.2,0c0,0-0.1,0-0.1,0c0,0-0.1,0-0.1,0.1c0,0-0.1,0-0.1,0.1   c0,0,0,0-0.1,0.1c-0.1,0-0.1,0.1-0.1,0.2c0,0,0,0,0,0c0,0,0,0,0,0.1c0,0.1-0.1,0.1-0.1,0.2l-2.8,16.6c-0.1,0.4,0.2,0.8,0.6,0.9   c0,0,0.1,0,0.1,0c0.4,0,0.7-0.3,0.7-0.6l2.6-15.6c1.2,0.4,3.7,1.1,7.5,1.1c1.7,0,3.7-0.1,6-0.5c2.4-0.3,4-1.3,5-2.8   c1.4-2.1,0.9-4.6,0.8-5.1V64H99c1,0,1.8-0.5,2.3-1.3c0.5-0.8,0.6-1.8,0.2-2.7l-5.9-12.3c-0.6-1.1-1-2.4-1.2-3.7L94,41.6   c-0.2-0.9-0.4-1.9-0.6-2.8c0-0.1,0-0.1-0.1-0.1L90,32.6c-2.7-5-7-9-12-11.2l5.3-5.3l6.6-0.1c0.3,1.4,1.6,2.5,3.2,2.5   c1.8,0,3.3-1.5,3.3-3.3c0-1.8-1.5-3.3-3.3-3.3c-1.5,0-2.8,1.1-3.2,2.5L83,14.5c-0.2,0-0.4,0.1-0.5,0.2l-6.6,6.6   c-0.1,0.1-0.2,0.3-0.2,0.5v24.8c-1.3-3.5-3.4-6.8-6.1-9.8V20.1L82.4,7.3l2.4,2.4c0.1,0.1,0.3,0.2,0.5,0.2c0.1,0,0.2,0,0.2,0   c0.3-0.1,0.5-0.3,0.5-0.6l0.8-6.7c0-0.2-0.1-0.5-0.2-0.6c-0.2-0.2-0.4-0.2-0.6-0.2l-6.7,0.8c-0.3,0-0.5,0.2-0.6,0.5   c-0.1,0.3,0,0.6,0.2,0.8l2.5,2.5L68.3,19.3c-0.1,0.1-0.2,0.3-0.2,0.5v15.5c-0.3-0.3-0.6-0.5-0.9-0.8c-0.3-0.2-0.5-0.5-0.9-0.7   c-0.6-0.4-1.3-0.6-2.1-0.6c-0.9,0-1.7,0.3-2.4,0.8V16.6l6.5-6.5c0.4,0.2,0.9,0.4,1.5,0.4c1.8,0,3.3-1.5,3.3-3.3   c0-1.8-1.5-3.3-3.3-3.3s-3.3,1.5-3.3,3.3c0,0.7,0.2,1.4,0.6,1.9l-6.6,6.6c-0.1,0.1-0.2,0.3-0.2,0.5V34c-0.7-0.5-1.5-0.8-2.4-0.8   c-0.7,0-1.4,0.2-2.1,0.6l0,0c0,0,0,0,0,0c0,0,0,0,0,0c0,0,0,0,0,0c-0.3,0.2-0.5,0.4-0.8,0.6c0,0,0,0,0,0c-0.2,0.2-0.5,0.5-0.7,0.7   V16.3c0-0.2-0.1-0.4-0.2-0.5l-6.6-6.6c0.4-0.5,0.6-1.2,0.6-1.9c0-1.8-1.5-3.3-3.3-3.3c-1.8,0-3.3,1.5-3.3,3.3   c0,1.8,1.5,3.3,3.3,3.3c0.5,0,1-0.1,1.5-0.4l6.5,6.5v19.8c0,0.1,0,0.2,0.1,0.2c-2.8,3-4.9,6.3-6.2,9.9V19.8c0-0.2-0.1-0.4-0.2-0.5   L37,9.9c-0.1-0.1-0.2-0.1-0.2-0.2c-0.1,0-0.2-0.1-0.3-0.1h-10V6.3c0-0.3-0.2-0.6-0.4-0.7c-0.3-0.1-0.6-0.1-0.8,0.1L20,9.9   c-0.2,0.1-0.3,0.4-0.3,0.6c0,0.2,0.1,0.4,0.3,0.6l5.3,4.2c0.1,0.1,0.3,0.2,0.5,0.2c0.1,0,0.2,0,0.3-0.1c0.3-0.1,0.4-0.4,0.4-0.7   v-3.4h9.6l8.9,8.9v3.8c-4.4,2.9-7.8,6.9-9.8,11.7c-1.5,3.6-2.2,7.3-2,11C33.3,46.8,32,66.3,44.6,79z M93.1,13.5   c1,0,1.8,0.8,1.8,1.8c0,1-0.8,1.8-1.8,1.8c-1,0-1.8-0.8-1.8-1.8C91.3,14.2,92.1,13.5,93.1,13.5z M85.3,3.2l-0.5,4.2l-1.7-1.7   c0-0.1-0.1-0.1-0.1-0.2c-0.1-0.1-0.1-0.1-0.2-0.1L81,3.7L85.3,3.2z M69.8,5.5c1,0,1.8,0.8,1.8,1.8c0,1-0.8,1.8-1.8,1.8   c-0.3,0-0.7-0.1-0.9-0.3c0,0,0-0.1-0.1-0.1c-0.1-0.1-0.2-0.1-0.3-0.2C68.2,8.1,68,7.7,68,7.2C68,6.2,68.8,5.5,69.8,5.5z M43.1,7.2   c0-1,0.8-1.8,1.8-1.8c1,0,1.8,0.8,1.8,1.8c0,0.5-0.2,0.9-0.5,1.2c-0.1,0-0.2,0.1-0.3,0.2c0,0-0.1,0.1-0.1,0.1   C45.5,8.9,45.2,9,44.8,9C43.9,9,43.1,8.2,43.1,7.2z M64.3,34.7c0.5,0,0.9,0.1,1.2,0.3c0.2,0.2,0.5,0.4,0.7,0.6   c0.8,0.7,1.5,1.4,2.2,2.2c0,0,0,0,0,0c0,0,1,1.3-1.1,4.8c-0.2,0.4-0.1,0.8,0.3,1c0.1,0.1,0.3,0.1,0.4,0.1c0.3,0,0.5-0.1,0.6-0.4   c0.9-1.5,1.3-2.7,1.5-3.6c1.3,1.6,2.4,3.4,3.2,5.1c-0.2,0.6-0.8,2.4-3,2.9c-0.4,0.1-0.7,0.5-0.6,0.9c0.1,0.4,0.4,0.6,0.7,0.6   c0,0,0.1,0,0.1,0c1.9-0.4,2.9-1.5,3.5-2.5c0.7,1.8,1.2,3.6,1.5,5.5c-0.9-0.6-2-1.1-3.4-1.2c-2-0.1-4.1,0.7-6,2.4   c-0.3,0.3-0.3,0.8-0.1,1.1c0.3,0.3,0.8,0.3,1.1,0.1c1.6-1.5,3.3-2.2,4.9-2.1c2,0.1,3.4,1.4,3.8,1.8c0.1,0.8,0.1,1.6,0.1,2.5   c0,8.8-5.6,14.2-10.5,16.3c-0.3,0.1-0.6,0.2-0.8,0.3c-0.1,0-0.3,0-0.5,0c-1.2,0-2.1-0.8-2.4-1.9c0-0.2,0.1-0.4,0.1-0.6V59.4   c1.1,0.6,2.8,1.3,4.6,1c1.2-0.1,2.4-0.6,3.3-1.5c0.3,1.3,1.1,2.9,2.9,3.2c0.1,0,0.1,0,0.1,0c0.4,0,0.7-0.2,0.7-0.6   c0.1-0.4-0.2-0.8-0.6-0.9c-1.7-0.3-1.9-3.4-1.9-3.4c0-0.3-0.2-0.6-0.5-0.7c-0.3-0.1-0.6,0-0.8,0.3c-1,1.2-2.1,1.9-3.4,2.1   c-1.9,0.2-3.7-0.8-4.5-1.3v-9.5c0.4-0.3,1-0.7,1.6-0.6c0.4,0,0.8,0.3,1.2,0.8c0.1,0.2,0.4,0.3,0.6,0.3c0.2,0,0.3,0,0.4-0.1   c0.3-0.2,0.4-0.7,0.2-1c-0.8-1.1-1.7-1.4-2.3-1.4c-0.6-0.1-1.2,0.1-1.7,0.4v-9.2c0-0.2,0-0.4-0.1-0.6   C62.1,35.5,63.1,34.7,64.3,34.7z M48.1,46.7c0.6,1,1.6,2.1,3.5,2.5c0,0,0.1,0,0.1,0c0.4,0,0.7-0.2,0.7-0.6c0.1-0.4-0.2-0.8-0.6-0.9   c-2.2-0.4-2.8-2.3-3-2.9c0.9-1.8,2-3.5,3.2-5.1c0.2,1,0.6,2.2,1.5,3.6c0.1,0.2,0.4,0.4,0.6,0.4c0.1,0,0.3,0,0.4-0.1   c0.4-0.2,0.5-0.7,0.3-1c-2.1-3.5-1.1-4.8-1.1-4.8c0,0,0,0,0,0c0.7-0.7,1.4-1.5,2.2-2.2c0.2-0.2,0.4-0.4,0.7-0.5   c0.4-0.2,0.8-0.3,1.3-0.3c1.2,0,2.1,0.8,2.4,1.9c0,0.2-0.1,0.4-0.1,0.6v9.2c-0.5-0.2-1.1-0.4-1.7-0.4c-0.6,0.1-1.5,0.3-2.3,1.4   c-0.2,0.3-0.2,0.8,0.2,1c0.1,0.1,0.3,0.1,0.4,0.1c0.2,0,0.5-0.1,0.6-0.3c0.4-0.5,0.7-0.8,1.2-0.8c0.6,0,1.2,0.3,1.6,0.6v9.5   c-0.8,0.5-2.6,1.5-4.5,1.3c-1.3-0.2-2.4-0.9-3.4-2.1c-0.2-0.2-0.5-0.3-0.8-0.3c-0.3,0.1-0.5,0.4-0.5,0.7c0,0-0.2,3-1.9,3.4   c-0.4,0.1-0.7,0.5-0.6,0.9c0.1,0.4,0.4,0.6,0.7,0.6c0,0,0.1,0,0.1,0c1.7-0.3,2.5-2,2.9-3.2c1,0.9,2.1,1.4,3.3,1.5   c1.8,0.2,3.5-0.4,4.6-1V71c0,0.2,0,0.4,0.1,0.6c-0.3,1.1-1.2,1.9-2.4,1.9c-0.2,0-0.3,0-0.4,0c-0.3-0.1-0.6-0.2-0.9-0.3   c-4.8-2-10.4-7.5-10.4-16.2c0-0.8,0-1.7,0.1-2.5c0.4-0.4,1.8-1.7,3.8-1.8c1.6-0.1,3.3,0.6,4.9,2.1c0.3,0.3,0.8,0.3,1.1-0.1   c0.3-0.3,0.3-0.8-0.1-1.1c-1.9-1.8-4-2.6-6-2.4c-1.4,0.1-2.6,0.6-3.4,1.2v0C46.9,50.4,47.4,48.5,48.1,46.7z M25,13.1l-3.4-2.6   L25,7.8V13.1z"/><path d="M53.6,69.4c0,0,0.1,0,0.1,0c0.4-0.1,0.7-0.5,0.6-0.9c0,0-0.3-1.8,0.6-3.2c0.5-0.8,1.4-1.3,2.6-1.4c0.4-0.1,0.7-0.5,0.6-0.9   c-0.1-0.4-0.5-0.7-0.9-0.6c-1.6,0.3-2.8,1-3.6,2.1c-1.3,1.9-0.9,4.2-0.8,4.3C53,69.2,53.3,69.4,53.6,69.4z"/><path d="M64.9,62.4c-0.4-0.1-0.8,0.2-0.9,0.6c-0.1,0.4,0.2,0.8,0.6,0.9c1.2,0.2,2,0.7,2.6,1.4c0.9,1.3,0.6,3.2,0.6,3.2   c-0.1,0.4,0.2,0.8,0.6,0.9c0,0,0.1,0,0.1,0c0.4,0,0.7-0.2,0.7-0.6c0-0.1,0.5-2.4-0.8-4.3C67.7,63.4,66.5,62.7,64.9,62.4z"/></g></svg>