<svg xmlns="http://www.w3.org/2000/svg" xmlns:xlink="http://www.w3.org/1999/xlink" version="1.1" x="0px" y="0px" viewBox="0 0 128 160" enable-background="new 0 0 128 128" xml:space="preserve"><g><path d="M41,35.1l-2.1-0.5c0.3-1.8,0-3.7-0.8-5.3l1.8-1.1c0.4-0.2,0.5-0.7,0.3-1c-0.2-0.4-0.7-0.5-1-0.3L37.4,28   c-1.1-1.5-2.6-2.6-4.3-3.2l0.5-2.1c0.1-0.4-0.1-0.8-0.5-0.9c-0.4-0.1-0.8,0.1-0.9,0.5l-0.5,2.1c-1.8-0.3-3.7,0-5.3,0.8l-1.1-1.8   c-0.2-0.4-0.7-0.5-1-0.3c-0.4,0.2-0.5,0.7-0.3,1l1.1,1.8c-1.5,1.1-2.6,2.6-3.2,4.3l-2.1-0.5c-0.4-0.1-0.8,0.1-0.9,0.5   c-0.1,0.4,0.1,0.8,0.5,0.9l2.1,0.5c-0.3,1.9,0,3.7,0.8,5.3l-1.8,1.1c-0.4,0.2-0.5,0.7-0.3,1c0.1,0.2,0.4,0.4,0.6,0.4   c0.1,0,0.3,0,0.4-0.1l1.8-1.1c1,1.5,2.5,2.6,4.3,3.2l-0.5,2.1c-0.1,0.4,0.1,0.8,0.5,0.9c0.1,0,0.1,0,0.2,0c0.3,0,0.6-0.2,0.7-0.6   l0.5-2.1c0.5,0.1,1,0.1,1.4,0.1c1.4,0,2.7-0.3,3.9-0.9l1.1,1.8c0.1,0.2,0.4,0.4,0.6,0.4c0.1,0,0.3,0,0.4-0.1c0.4-0.2,0.5-0.7,0.3-1   l-1.1-1.8c1.5-1,2.6-2.5,3.2-4.3l2.1,0.5c0.1,0,0.1,0,0.2,0c0.3,0,0.6-0.2,0.7-0.6C41.6,35.6,41.4,35.2,41,35.1z M28.4,40.3   c-3.9-1-6.3-5-5.3-8.9c0.5-1.9,1.7-3.5,3.4-4.5c1.2-0.7,2.4-1,3.7-1c0.6,0,1.2,0.1,1.8,0.2c1.9,0.5,3.5,1.7,4.5,3.4   c1,1.7,1.3,3.7,0.8,5.6C36.3,38.9,32.3,41.3,28.4,40.3z"/><path d="M31.5,28.1c-1.4-0.3-2.8-0.1-4,0.6c-1.2,0.7-2.1,1.9-2.4,3.2c-0.7,2.8,1,5.7,3.8,6.4c0.4,0.1,0.9,0.2,1.3,0.2   c0.9,0,1.9-0.3,2.7-0.7c1.2-0.7,2.1-1.9,2.4-3.2C36,31.6,34.3,28.8,31.5,28.1z M33.8,34.1c-0.2,1-0.9,1.8-1.7,2.3   c-0.9,0.5-1.9,0.7-2.8,0.4c-2-0.5-3.2-2.5-2.7-4.5c0.2-1,0.9-1.8,1.7-2.3c0.6-0.3,1.2-0.5,1.9-0.5c0.3,0,0.6,0,0.9,0.1   C33.1,30,34.3,32.1,33.8,34.1z"/><path d="M47,23.1c0.1,0.2,0.4,0.4,0.6,0.4c0.1,0,0.3,0,0.4-0.1l7.3-4.3c0.4-0.2,0.5-0.7,0.3-1c-0.2-0.4-0.7-0.5-1-0.3l-7.3,4.3   C46.9,22.3,46.8,22.7,47,23.1z"/><path d="M44.1,19.1c0.1,0.1,0.3,0.2,0.5,0.2c0.2,0,0.4-0.1,0.6-0.3l3.3-3.8c0.3-0.3,0.2-0.8-0.1-1.1c-0.3-0.3-0.8-0.2-1.1,0.1   L44,18C43.7,18.3,43.7,18.8,44.1,19.1z"/><path d="M19,15.9c0.1,0.2,0.4,0.4,0.6,0.4c0.1,0,0.3,0,0.4-0.1c0.4-0.2,0.5-0.7,0.3-1l-4.4-7.3c-0.2-0.4-0.7-0.5-1-0.3   c-0.4,0.2-0.5,0.7-0.3,1L19,15.9z"/><path d="M4.4,19.9l7.5,4.1C12,24,12.1,24,12.2,24c0.3,0,0.5-0.1,0.7-0.4c0.2-0.4,0.1-0.8-0.3-1l-7.5-4.1c-0.4-0.2-0.8-0.1-1,0.3   C3.9,19.2,4,19.7,4.4,19.9z"/><path d="M10.5,33.5c0-0.4-0.3-0.7-0.8-0.7c0,0,0,0,0,0l-8.5,0.2c-0.4,0-0.7,0.4-0.7,0.8c0,0.4,0.3,0.7,0.8,0.7c0,0,0,0,0,0l8.5-0.2   C10.2,34.2,10.5,33.9,10.5,33.5z"/><path d="M12.3,42.9L5,47.3c-0.4,0.2-0.5,0.7-0.3,1c0.1,0.2,0.4,0.4,0.6,0.4c0.1,0,0.3,0,0.4-0.1l7.3-4.4c0.4-0.2,0.5-0.7,0.3-1   C13.1,42.8,12.6,42.7,12.3,42.9z"/><path d="M39.8,16c0.1,0.1,0.2,0.1,0.4,0.1c0.3,0,0.5-0.1,0.7-0.4l4.2-7.4c0.2-0.4,0.1-0.8-0.3-1c-0.4-0.2-0.8-0.1-1,0.3L39.5,15   C39.3,15.3,39.5,15.8,39.8,16z"/><path d="M30,13.4C30,13.4,30,13.4,30,13.4c0.4,0,0.8-0.3,0.8-0.8l0-8.5c0-0.4-0.3-0.8-0.8-0.8c0,0,0,0,0,0c-0.4,0-0.8,0.3-0.8,0.8   l0,8.5C29.3,13.1,29.6,13.4,30,13.4z"/><path d="M15.3,19c0.1,0.1,0.3,0.2,0.5,0.2c0.2,0,0.4-0.1,0.6-0.3c0.3-0.3,0.2-0.8-0.1-1.1l-3.8-3.4c-0.3-0.3-0.8-0.2-1.1,0.1   c-0.3,0.3-0.2,0.8,0.1,1.1L15.3,19z"/><path d="M10.5,26.8l-5-1c-0.4-0.1-0.8,0.2-0.9,0.6c-0.1,0.4,0.2,0.8,0.6,0.9l5,1c0.1,0,0.1,0,0.2,0c0.4,0,0.7-0.2,0.7-0.6   C11.2,27.3,10.9,26.9,10.5,26.8z"/><path d="M10.1,37.5l-4.8,1.6c-0.4,0.1-0.6,0.6-0.5,1c0.1,0.3,0.4,0.5,0.7,0.5c0.1,0,0.2,0,0.2,0l4.8-1.6c0.4-0.1,0.6-0.6,0.5-1   C10.9,37.6,10.5,37.4,10.1,37.5z"/><path d="M35.2,14c0,0,0.1,0,0.1,0c0.4,0,0.7-0.3,0.7-0.6l1-5c0.1-0.4-0.2-0.8-0.6-0.9c-0.4-0.1-0.8,0.2-0.9,0.6l-1,5   C34.5,13.5,34.8,13.9,35.2,14z"/><path d="M24,13.5c0.1,0.3,0.4,0.5,0.7,0.5c0.1,0,0.2,0,0.2,0c0.4-0.1,0.6-0.6,0.5-1l-1.7-4.8c-0.1-0.4-0.6-0.6-1-0.5   c-0.4,0.1-0.6,0.6-0.5,1L24,13.5z"/><path d="M81.3,66.3c-2.9,0.1-5.5,1.4-7.5,3.5c-2,2.1-3,4.9-2.8,7.8c0.2,5.8,5,10.3,10.8,10.3c0.2,0,0.3,0,0.5,0   c6-0.3,10.6-5.3,10.3-11.3C92.3,70.7,87.3,66.1,81.3,66.3z M82.2,86.4c-5.1,0.2-9.5-3.8-9.7-8.9c-0.1-2.5,0.8-4.9,2.4-6.7   c1.7-1.8,4-2.9,6.5-3c0.1,0,0.3,0,0.4,0c4.9,0,9.1,3.9,9.3,8.9C91.3,81.9,87.3,86.2,82.2,86.4z"/><path d="M112.9,44.5c0.6,1.9,2.4,3.1,4.4,3.1c0.5,0,1-0.1,1.4-0.2c1.2-0.4,2.1-1.2,2.7-2.3c0.5-1.1,0.6-2.3,0.2-3.5   c-0.4-1.2-1.2-2.1-2.3-2.7c-1.1-0.5-2.3-0.6-3.5-0.2c-1.2,0.4-2.1,1.2-2.7,2.3C112.6,42.1,112.5,43.3,112.9,44.5z M114.5,41.6   c0.4-0.7,1-1.3,1.8-1.5c0.3-0.1,0.7-0.2,1-0.2c0.5,0,0.9,0.1,1.4,0.3c0.7,0.4,1.3,1,1.5,1.8c0.3,0.8,0.2,1.6-0.2,2.4   c-0.4,0.7-1,1.3-1.8,1.5c-1.6,0.5-3.4-0.3-3.9-2C114.1,43.2,114.1,42.4,114.5,41.6z"/><path d="M124.8,40.5c-1.4-4.2-5.9-6.4-10.1-5c-0.7,0.2-1.3,0.5-1.9,0.9c0,0,0,0,0,0l-0.1,0.1c-0.1,0.1-0.2,0.1-0.2,0.2L80.7,59   c-0.6,0.1-1.2,0.4-1.6,0.9c-0.3,0.3-0.5,0.7-0.6,1.1c-0.1-0.1-0.3-0.3-0.4-0.4c0,0,0-0.1,0-0.1V38.1c0.2-0.2,0.3-0.4,0.3-0.7   c0-0.3-0.1-0.6-0.3-0.7v-6.4c0-1.8-0.5-3.9-4.8-3.9h-27c-0.3,0-0.5,0.1-0.7,0.3c-2.3-5.8-7.8-9.9-14.2-10.4   c-4.7-0.3-9.1,1.3-12.5,4.4c-3.3,3.1-5.3,7.5-5.3,12.1c0,2.6,0.6,5.1,1.7,7.3c0,0,0,0.1,0.1,0.1c0.4,0.7,0.9,1.4,1.3,2.1   c0,0,0,0,0,0c2.5,4.5,4.3,9.5,5.3,14.8c0.3,1.5,0.5,3,0.7,4.5c0,0.1,0,0.1,0,0.2c0.5,1.3,1.8,2.2,3.2,2.2h8.6c1.6,0,3-1.1,3.3-2.7   c0.1-1,0.2-1.8,0.4-2.6c1-6.1,3.1-12,6-17.1c0.1-0.2,0.2-0.4,0.4-0.6L44,40.6l0.6,0.4c0,0,0,0,0-0.1c1.6-2.7,2.3-5.9,2.1-9   c-0.1-1.3-0.3-2.5-0.6-3.6c0,0,0.1,0,0.1,0h27c2.9,0,2.7,1,2.7,1.9v6.1H47.3c-0.6,0-1,0.4-1,1s0.4,1,1,1H76v21.6   c-0.2,0-0.4,0.1-0.7,0.1c-0.7,0.3-1.2,0.8-1.5,1.4c-0.2,0.4-0.3,0.8-0.2,1.2c-0.5-0.3-1-0.4-1.6-0.4c-0.6,0-1.1,0.2-1.6,0.6   c-0.6,0.5-0.9,1.1-1,1.8c0,0.4,0,0.8,0.1,1.2c-0.3-0.1-0.5-0.1-0.8-0.1c-0.9,0-1.7,0.5-2.2,1.2c-0.7,1-0.6,2.3,0.1,3.2   c-1.2,0.1-2.2,0.9-2.5,2c-0.3,1.2,0.2,2.4,1.1,3c-0.4,0.2-0.7,0.4-1,0.7c-0.5,0.5-0.7,1.3-0.7,2c0,0.7,0.3,1.4,0.9,1.9   c0.3,0.3,0.7,0.5,1.1,0.6c-0.6,0.5-1,1.4-1,2.2c0,0.3,0.1,0.6,0.2,0.8c0.3,0.7,0.8,1.2,1.4,1.5c0.4,0.2,0.8,0.2,1.2,0.2   c-0.3,0.5-0.4,1-0.4,1.6c0,0.6,0.2,1.1,0.6,1.6c0.5,0.6,1.1,0.9,1.8,1c0.4,0,0.8,0,1.2-0.1c-0.1,0.3-0.1,0.5-0.1,0.8   c0,0.9,0.5,1.7,1.2,2.2c1,0.6,2.3,0.6,3.2-0.1c0.1,1.1,0.7,2,1.7,2.4c-0.4,0.2-0.6,0.5-0.6,0.9v1.8H27.9v-32c0-0.6-0.4-1-1-1   s-1,0.4-1,1v38.9c0,2.8,2.8,6.2,5.8,6.2h41.7c2.9,0,4.8-3.4,4.8-6.2v-5.8c0.1-0.1,0.2-0.3,0.2-0.5c0-0.2-0.1-0.3-0.2-0.5v-2.1   c0-0.3-0.1-0.5-0.3-0.7c0.5,0,0.9-0.1,1.3-0.3c0.4-0.2,0.7-0.5,0.9-0.8c0.2,0.4,0.4,0.7,0.7,1c0.5,0.5,1.2,0.7,1.9,0.7   c0,0,0.1,0,0.1,0c0.7,0,1.4-0.3,1.9-0.9c0.3-0.3,0.5-0.7,0.6-1.1c0.5,0.6,1.3,1,2.2,1c0.3,0,0.6-0.1,0.8-0.2   c0.7-0.3,1.2-0.8,1.5-1.4c0.2-0.4,0.3-0.8,0.2-1.2c0.5,0.3,1,0.4,1.6,0.4c0.6,0,1.1-0.2,1.6-0.6c0.6-0.5,0.9-1.1,1-1.8   c0-0.4,0-0.8-0.1-1.2c0.3,0.1,0.5,0.1,0.8,0.1c0.9,0,1.7-0.5,2.2-1.2c0.7-1,0.6-2.3-0.1-3.2c1.1-0.1,2-0.8,2.4-1.9l24.4-34.6   c0,0,0,0,0,0C125.1,45.5,125.6,43,124.8,40.5z M37.2,55.9H23.2c-0.2-0.8-0.3-1.5-0.5-2.3h15C37.5,54.3,37.3,55.1,37.2,55.9z    M36.3,61.1c-0.2,0.9-1,1.5-1.8,1.5h-8.6c-0.8,0-1.4-0.5-1.7-1.1c-0.1-1.3-0.3-2.7-0.6-4h13.3c-0.1,0.4-0.1,0.7-0.2,1.1   C36.5,59.3,36.4,60.2,36.3,61.1z M43.3,40.2C43.3,40.2,43.3,40.2,43.3,40.2c-0.2,0.3-0.3,0.5-0.4,0.7c-2,3.5-3.6,7.2-4.8,11.2H22.3   c-1.1-3.7-2.5-7.2-4.4-10.5c0,0,0,0,0,0c-0.4-0.7-0.8-1.5-1.3-2.1c-1-2.1-1.6-4.3-1.6-6.7c0-4.2,1.7-8.2,4.8-11   c3.1-2.9,7.1-4.3,11.3-4c7.6,0.5,13.6,6.6,14,14.3C45.4,34.9,44.7,37.7,43.3,40.2z M115.2,36.9c0.7-0.2,1.4-0.3,2-0.3   c2.7,0,5.2,1.7,6.1,4.4c0.7,2.1,0.3,4.3-1,5.9l0,0.1c-0.8,1-1.8,1.8-3.1,2.2c-1.6,0.5-3.4,0.4-4.9-0.3c-1.5-0.8-2.7-2.1-3.2-3.7   c-0.5-1.6-0.4-3.4,0.4-4.9C112.2,38.6,113.6,37.4,115.2,36.9z M98.3,78.9c0.4-0.2,0.7-0.4,1-0.7c0.5-0.5,0.7-1.2,0.7-2   c-0.1-1.2-0.9-2.2-2-2.5c0.6-0.5,1-1.4,1-2.2c0-0.3-0.1-0.6-0.2-0.8c-0.4-1.1-1.5-1.8-2.6-1.8c0.3-0.5,0.4-1,0.4-1.6   c0-0.6-0.2-1.1-0.6-1.6c-0.8-0.9-2-1.2-3.1-0.9c0.1-0.3,0.1-0.5,0.1-0.8c0-0.9-0.5-1.7-1.2-2.2c-0.6-0.4-1.3-0.5-2.1-0.4   c-0.4,0.1-0.8,0.3-1.1,0.5c-0.1-1.2-0.9-2.2-2-2.5c-1.1-0.3-2.3,0.1-2.9,1c-0.2-0.4-0.4-0.7-0.7-0.9c-0.1-0.1-0.2-0.1-0.3-0.2   l27.1-19c-0.6,1.7-0.6,3.4,0,5.1c0.7,2,2.1,3.6,4,4.6c1.1,0.6,2.3,0.8,3.6,0.8c0.8,0,1.7-0.1,2.5-0.4c0,0,0,0,0.1,0L99.1,79.8   C98.9,79.5,98.6,79.2,98.3,78.9z M73.3,108.6H31.6c-1.7,0-3.8-2.5-3.8-4.2v-5.5H76v5.5C76,106.2,74.9,108.6,73.3,108.6z M96.8,82.5   c-0.1,0-0.3,0-0.4,0L96,82.3c-0.4-0.1-0.7,0.1-0.9,0.4c-0.1,0.2-0.2,0.5-0.3,0.7c-0.2,0.3,0,0.7,0.3,0.9l0.4,0.2   c0.6,0.4,0.7,1.2,0.4,1.7c-0.2,0.3-0.6,0.5-1,0.6c-0.3,0-0.5-0.1-0.7-0.2l-0.4-0.2c-0.3-0.2-0.7-0.2-1,0.1   c-0.2,0.2-0.3,0.4-0.5,0.5c-0.3,0.3-0.3,0.7-0.1,1l0.3,0.4c0.2,0.3,0.3,0.6,0.3,0.9c0,0.3-0.2,0.6-0.5,0.8   c-0.2,0.2-0.5,0.3-0.7,0.3c-0.4,0-0.8-0.2-1-0.5l-0.3-0.3c-0.2-0.3-0.7-0.4-1-0.2c-0.2,0.1-0.4,0.2-0.6,0.4   c-0.3,0.2-0.5,0.6-0.3,0.9l0.2,0.4c0.1,0.3,0.1,0.7,0,1c-0.1,0.3-0.4,0.5-0.7,0.7c-0.1,0-0.3,0.1-0.4,0.1c-0.5,0-1-0.3-1.2-0.8   L86,91.7c-0.1-0.4-0.5-0.6-0.9-0.5c-0.2,0.1-0.4,0.1-0.7,0.2c-0.4,0.1-0.6,0.4-0.6,0.8l0,0.4c0,0.3-0.1,0.7-0.3,0.9   c-0.2,0.2-0.5,0.4-0.9,0.4c-0.3,0-0.7-0.1-0.9-0.3c-0.2-0.2-0.4-0.5-0.4-0.9l0-0.4c0-0.4-0.3-0.7-0.7-0.7c-0.2,0-0.4,0-0.6-0.1   l-0.1,0c0,0-0.1,0-0.1,0c-0.3,0-0.6,0.2-0.7,0.6l-0.1,0.4c-0.1,0.3-0.3,0.6-0.6,0.8c-0.3,0.2-0.6,0.2-1,0.1   c-0.5-0.1-0.9-0.6-0.9-1.2c0-0.1,0-0.3,0-0.4l0.1-0.4c0.1-0.4-0.1-0.8-0.4-0.9c-0.2-0.1-0.4-0.2-0.6-0.3c-0.3-0.2-0.8-0.1-1,0.3   l-0.2,0.4c-0.4,0.6-1.2,0.7-1.7,0.4c-0.3-0.2-0.5-0.6-0.6-1c0-0.3,0.1-0.5,0.2-0.7l0.2-0.4c0.2-0.3,0.1-0.8-0.2-1   c-0.2-0.1-0.3-0.3-0.5-0.5c-0.3-0.3-0.7-0.3-1-0.1l-0.3,0.3c-0.3,0.2-0.6,0.3-0.9,0.3c-0.3,0-0.6-0.2-0.8-0.5   c-0.2-0.2-0.3-0.5-0.3-0.7c0-0.4,0.2-0.8,0.5-1l0.3-0.3c0.3-0.2,0.4-0.7,0.2-1c-0.1-0.2-0.2-0.4-0.4-0.6c-0.2-0.3-0.6-0.5-0.9-0.3   l-0.4,0.2c-0.3,0.1-0.7,0.1-1,0c-0.3-0.1-0.5-0.4-0.6-0.7c0-0.1-0.1-0.3-0.1-0.4c0-0.5,0.3-1,0.8-1.2l0.4-0.2   c0.4-0.1,0.6-0.5,0.5-0.9c-0.1-0.2-0.1-0.5-0.1-0.7c-0.1-0.4-0.4-0.7-0.8-0.6l-0.4,0c-0.3,0-0.7-0.1-0.9-0.3   c-0.2-0.2-0.4-0.5-0.4-0.9c0-0.3,0.1-0.7,0.3-0.9c0.2-0.2,0.5-0.4,0.9-0.4l0.4,0c0.4,0,0.7-0.3,0.7-0.7c0-0.2,0-0.5,0.1-0.7   c0.1-0.4-0.2-0.7-0.5-0.8l-0.4-0.1c-0.7-0.2-1-0.9-0.9-1.5c0.1-0.5,0.6-0.9,1.1-0.9c0.1,0,0.3,0,0.4,0l0.4,0.1   c0.4,0.1,0.7-0.1,0.9-0.4c0.1-0.2,0.1-0.3,0.2-0.4l0.1-0.2c0.2-0.3,0-0.7-0.3-0.9l-0.4-0.2c-0.6-0.4-0.7-1.1-0.4-1.7   c0.2-0.3,0.6-0.5,1-0.6c0.3,0,0.5,0.1,0.7,0.2l0.4,0.2c0.3,0.2,0.7,0.1,1-0.1c0.2-0.2,0.3-0.4,0.5-0.5c0.3-0.3,0.3-0.7,0.1-1   l-0.3-0.4c-0.2-0.3-0.3-0.6-0.3-0.9c0-0.3,0.2-0.6,0.5-0.8c0.2-0.2,0.5-0.3,0.7-0.3c0.4,0,0.8,0.2,1,0.5l0.3,0.3   c0.2,0.3,0.7,0.4,1,0.2c0.2-0.1,0.4-0.2,0.6-0.3c0.3-0.2,0.5-0.6,0.4-0.9l-0.2-0.4c-0.1-0.3-0.1-0.6,0-0.9c0.1-0.3,0.4-0.5,0.7-0.7   c0.1,0,0.3-0.1,0.4-0.1c0.5,0,1,0.3,1.2,0.8l0.2,0.4c0.1,0.4,0.5,0.6,0.9,0.5c0.2-0.1,0.5-0.1,0.7-0.1c0.4-0.1,0.7-0.4,0.6-0.8   l0-0.4c0-0.3,0.1-0.7,0.3-0.9c0.2-0.2,0.5-0.4,0.9-0.4c0.3,0,0.6,0.1,0.9,0.3c0.2,0.2,0.4,0.5,0.4,0.9l0,0.4c0,0.4,0.3,0.7,0.7,0.7   c0.2,0,0.4,0,0.7,0.1c0.4,0,0.7-0.2,0.8-0.6l0.1-0.4c0.2-0.7,0.9-1.1,1.5-0.9c0.5,0.1,0.9,0.6,0.9,1.1c0,0.1,0,0.3,0,0.4l-0.1,0.4   c-0.1,0.4,0.1,0.8,0.4,0.9c0.2,0.1,0.4,0.2,0.7,0.3c0.3,0.2,0.8,0.1,1-0.3l0.2-0.4c0.2-0.3,0.5-0.5,0.8-0.5c0.3-0.1,0.7,0,0.9,0.2   c0.3,0.2,0.5,0.6,0.6,1c0,0.3-0.1,0.5-0.2,0.7l-0.2,0.4c-0.2,0.3-0.1,0.7,0.1,1c0.2,0.2,0.4,0.3,0.5,0.5c0.3,0.3,0.7,0.3,1,0   l0.4-0.3c0.5-0.4,1.3-0.3,1.7,0.2c0.2,0.2,0.3,0.5,0.3,0.7c0,0.4-0.2,0.8-0.5,1l-0.3,0.3c-0.3,0.2-0.4,0.7-0.2,1   c0.1,0.2,0.2,0.4,0.4,0.6c0.2,0.3,0.6,0.5,0.9,0.3l0.4-0.2c0.6-0.2,1.4,0.1,1.6,0.7c0,0.1,0.1,0.3,0.1,0.4c0,0.5-0.3,1-0.8,1.2   L96.3,73c-0.4,0.1-0.6,0.5-0.5,0.9c0.1,0.2,0.1,0.5,0.1,0.7c0.1,0.4,0.4,0.7,0.8,0.6l0.4,0c0.7,0,1.3,0.5,1.3,1.2   c0,0.3-0.1,0.7-0.3,0.9c-0.2,0.2-0.5,0.4-0.9,0.4l-0.4,0c-0.4,0-0.7,0.3-0.7,0.7c0,0.2,0,0.3-0.1,0.5l0,0.2c0,0.4,0.2,0.7,0.6,0.8   l0.4,0.1c0.7,0.2,1,0.9,0.9,1.5C97.8,82.1,97.3,82.4,96.8,82.5z"/><path d="M18.8,81.7c0.4,0,0.8-0.3,0.8-0.8V70.3c0-0.4-0.3-0.8-0.8-0.8c-0.4,0-0.8,0.3-0.8,0.8v10.6C18,81.3,18.4,81.7,18.8,81.7z"/><path d="M18,87.8c0,0.4,0.3,0.8,0.8,0.8c0.4,0,0.8-0.3,0.8-0.8v-3.4c0-0.4-0.3-0.8-0.8-0.8c-0.4,0-0.8,0.3-0.8,0.8V87.8z"/><path d="M126.7,58.4c-0.4,0-0.8,0.3-0.8,0.8v10.6c0,0.4,0.3,0.8,0.8,0.8s0.8-0.3,0.8-0.8V59.1C127.5,58.7,127.2,58.4,126.7,58.4z"/><path d="M126.7,72.4c-0.4,0-0.8,0.3-0.8,0.8v3.4c0,0.4,0.3,0.8,0.8,0.8s0.8-0.3,0.8-0.8v-3.4C127.5,72.8,127.2,72.4,126.7,72.4z"/><path d="M100.5,110c-0.3-0.3-0.8-0.3-1.1,0c-0.3,0.3-0.3,0.8,0,1.1l1.4,1.4c0.1,0.1,0.3,0.2,0.5,0.2c0.2,0,0.4-0.1,0.5-0.2   c0.3-0.3,0.3-0.8,0-1.1L100.5,110z"/><path d="M105.1,114.7c-0.3-0.3-0.8-0.3-1.1,0c-0.3,0.3-0.3,0.8,0,1.1l1.4,1.4c0.1,0.1,0.3,0.2,0.5,0.2c0.2,0,0.4-0.1,0.5-0.2   c0.3-0.3,0.3-0.8,0-1.1L105.1,114.7z"/><path d="M100.8,114.7l-1.4,1.4c-0.3,0.3-0.3,0.8,0,1.1c0.1,0.1,0.3,0.2,0.5,0.2c0.2,0,0.4-0.1,0.5-0.2l1.4-1.4   c0.3-0.3,0.3-0.8,0-1.1C101.6,114.4,101.1,114.4,100.8,114.7z"/><path d="M105.5,110l-1.4,1.4c-0.3,0.3-0.3,0.8,0,1.1c0.1,0.1,0.3,0.2,0.5,0.2c0.2,0,0.4-0.1,0.5-0.2l1.4-1.4c0.3-0.3,0.3-0.8,0-1.1   C106.3,109.7,105.8,109.7,105.5,110z"/><path d="M18.3,117.2c-0.3-0.3-0.8-0.3-1.1,0c-0.3,0.3-0.3,0.8,0,1.1l1.4,1.4c0.1,0.1,0.3,0.2,0.5,0.2c0.2,0,0.4-0.1,0.5-0.2   c0.3-0.3,0.3-0.8,0-1.1L18.3,117.2z"/><path d="M22.9,121.9c-0.3-0.3-0.8-0.3-1.1,0c-0.3,0.3-0.3,0.8,0,1.1l1.4,1.4c0.1,0.1,0.3,0.2,0.5,0.2c0.2,0,0.4-0.1,0.5-0.2   c0.3-0.3,0.3-0.8,0-1.1L22.9,121.9z"/><path d="M18.6,121.9l-1.4,1.4c-0.3,0.3-0.3,0.8,0,1.1c0.1,0.1,0.3,0.2,0.5,0.2c0.2,0,0.4-0.1,0.5-0.2l1.4-1.4   c0.3-0.3,0.3-0.8,0-1.1C19.4,121.6,18.9,121.6,18.6,121.9z"/><path d="M23.3,117.2l-1.4,1.4c-0.3,0.3-0.3,0.8,0,1.1c0.1,0.1,0.3,0.2,0.5,0.2c0.2,0,0.4-0.1,0.5-0.2l1.4-1.4   c0.3-0.3,0.3-0.8,0-1.1C24.1,116.9,23.6,116.9,23.3,117.2z"/><path d="M88.1,39c0.1,0.1,0.3,0.2,0.5,0.2c0.2,0,0.4-0.1,0.5-0.2c0.3-0.3,0.3-0.8,0-1.1l-1.4-1.4c-0.3-0.3-0.8-0.3-1.1,0   c-0.3,0.3-0.3,0.8,0,1.1L88.1,39z"/><path d="M92.7,43.7c0.1,0.1,0.3,0.2,0.5,0.2c0.2,0,0.4-0.1,0.5-0.2c0.3-0.3,0.3-0.8,0-1.1l-1.4-1.4c-0.3-0.3-0.8-0.3-1.1,0   c-0.3,0.3-0.3,0.8,0,1.1L92.7,43.7z"/><path d="M87.2,43.9c0.2,0,0.4-0.1,0.5-0.2l1.4-1.4c0.3-0.3,0.3-0.8,0-1.1c-0.3-0.3-0.8-0.3-1.1,0l-1.4,1.4c-0.3,0.3-0.3,0.8,0,1.1   C86.8,43.8,87,43.9,87.2,43.9z"/><path d="M91.8,39.3c0.2,0,0.4-0.1,0.5-0.2l1.4-1.4c0.3-0.3,0.3-0.8,0-1.1c-0.3-0.3-0.8-0.3-1.1,0L91.3,38c-0.3,0.3-0.3,0.8,0,1.1   C91.5,39.2,91.6,39.3,91.8,39.3z"/><path d="M46.9,114.3c-1.9,0-3.5,1.6-3.5,3.5c0,1.9,1.6,3.5,3.5,3.5c1.9,0,3.5-1.6,3.5-3.5C50.4,115.8,48.8,114.3,46.9,114.3z    M46.9,119.7c-1.1,0-2-0.9-2-2c0-1.1,0.9-2,2-2c1.1,0,2,0.9,2,2C48.9,118.8,48,119.7,46.9,119.7z"/><path d="M69.8,20.1c1.9,0,3.5-1.6,3.5-3.5c0-1.9-1.6-3.5-3.5-3.5s-3.5,1.6-3.5,3.5C66.3,18.5,67.9,20.1,69.8,20.1z M69.8,14.6   c1.1,0,2,0.9,2,2c0,1.1-0.9,2-2,2c-1.1,0-2-0.9-2-2C67.8,15.5,68.7,14.6,69.8,14.6z"/><path d="M79.7,122.2H67.1c-0.4,0-0.8,0.3-0.8,0.8c0,0.4,0.3,0.8,0.8,0.8h12.6c0.4,0,0.8-0.3,0.8-0.8   C80.4,122.5,80.1,122.2,79.7,122.2z"/><path d="M87.9,122.2h-4.1c-0.4,0-0.8,0.3-0.8,0.8c0,0.4,0.3,0.8,0.8,0.8h4.1c0.4,0,0.8-0.3,0.8-0.8   C88.6,122.5,88.3,122.2,87.9,122.2z"/><path d="M87.9,117.9h-8.8c-0.4,0-0.8,0.3-0.8,0.8c0,0.4,0.3,0.8,0.8,0.8h8.8c0.4,0,0.8-0.3,0.8-0.8   C88.6,118.2,88.3,117.9,87.9,117.9z"/><path d="M75.3,119.4c0.4,0,0.8-0.3,0.8-0.8c0-0.4-0.3-0.8-0.8-0.8h-2.8c-0.4,0-0.8,0.3-0.8,0.8c0,0.4,0.3,0.8,0.8,0.8H75.3z"/><path d="M113.4,95.5h-12.6c-0.4,0-0.8,0.3-0.8,0.8c0,0.4,0.3,0.8,0.8,0.8h12.6c0.4,0,0.8-0.3,0.8-0.8   C114.2,95.9,113.8,95.5,113.4,95.5z"/><path d="M121.6,95.5h-4.1c-0.4,0-0.8,0.3-0.8,0.8c0,0.4,0.3,0.8,0.8,0.8h4.1c0.4,0,0.8-0.3,0.8-0.8C122.4,95.9,122,95.5,121.6,95.5   z"/><path d="M121.6,91.2h-8.8c-0.4,0-0.8,0.3-0.8,0.8c0,0.4,0.3,0.8,0.8,0.8h8.8c0.4,0,0.8-0.3,0.8-0.8C122.4,91.6,122,91.2,121.6,91.2   z"/><path d="M109.1,92.7c0.4,0,0.8-0.3,0.8-0.8c0-0.4-0.3-0.8-0.8-0.8h-2.8c-0.4,0-0.8,0.3-0.8,0.8c0,0.4,0.3,0.8,0.8,0.8H109.1z"/><path d="M111.1,19.1h12.6c0.4,0,0.8-0.3,0.8-0.8c0-0.4-0.3-0.8-0.8-0.8h-12.6c-0.4,0-0.8,0.3-0.8,0.8   C110.3,18.8,110.7,19.1,111.1,19.1z"/><path d="M102.9,19.1h4.1c0.4,0,0.8-0.3,0.8-0.8c0-0.4-0.3-0.8-0.8-0.8h-4.1c-0.4,0-0.8,0.3-0.8,0.8   C102.1,18.8,102.5,19.1,102.9,19.1z"/><path d="M102.9,23.5h8.8c0.4,0,0.8-0.3,0.8-0.8c0-0.4-0.3-0.8-0.8-0.8h-8.8c-0.4,0-0.8,0.3-0.8,0.8   C102.1,23.1,102.5,23.5,102.9,23.5z"/><path d="M115.4,22c-0.4,0-0.8,0.3-0.8,0.8c0,0.4,0.3,0.8,0.8,0.8h2.8c0.4,0,0.8-0.3,0.8-0.8c0-0.4-0.3-0.8-0.8-0.8H115.4z"/><path d="M55.3,31.8c0.4,0,0.8-0.3,0.8-0.8c0-0.4-0.3-0.8-0.8-0.8h-5.7c-0.4,0-0.8,0.3-0.8,0.8c0,0.4,0.3,0.8,0.8,0.8H55.3z"/><path d="M60.8,102.4H44.1c-0.4,0-0.8,0.3-0.8,0.8c0,0.4,0.3,0.8,0.8,0.8h16.8c0.4,0,0.8-0.3,0.8-0.8   C61.6,102.8,61.2,102.4,60.8,102.4z"/><path d="M46.9,79.3H58c0.4,0,0.8-0.3,0.8-0.8v-10c0-0.4-0.3-0.8-0.8-0.8H46.9c-0.4,0-0.8,0.3-0.8,0.8v10   C46.1,79,46.5,79.3,46.9,79.3z M47.7,69.4h9.6v8.5h-9.6V69.4z"/><path d="M72.7,52.8c0.4,0,0.8-0.3,0.8-0.8v-10c0-0.4-0.3-0.8-0.8-0.8H61.6c-0.4,0-0.8,0.3-0.8,0.8v10c0,0.4,0.3,0.8,0.8,0.8H72.7z    M62.4,42.9H72v8.5h-9.6V42.9z"/><path d="M43.3,93.6c0.4,0,0.8-0.3,0.8-0.8v-10c0-0.4-0.3-0.8-0.8-0.8H32.2c-0.4,0-0.8,0.3-0.8,0.8v10c0,0.4,0.3,0.8,0.8,0.8H43.3z    M32.9,83.6h9.6V92h-9.6V83.6z"/><path d="M46.1,92.8c0,0.4,0.3,0.8,0.8,0.8H58c0.4,0,0.8-0.3,0.8-0.8v-10c0-0.4-0.3-0.8-0.8-0.8H46.9c-0.4,0-0.8,0.3-0.8,0.8V92.8z    M47.7,83.6h9.6V92h-9.6V83.6z"/></g></svg>