<svg xmlns="http://www.w3.org/2000/svg" xmlns:xlink="http://www.w3.org/1999/xlink" version="1.1" x="0px" y="0px" viewBox="0 0 128 160" enable-background="new 0 0 128 128" xml:space="preserve"><g><path d="M50.3,34.3h15.1c0.4,0,0.8-0.3,0.8-0.8s-0.3-0.8-0.8-0.8h-1.7c0.7-1.1,1.1-2.4,1.1-3.7c0-1.8-0.7-3.6-2-4.9   c-1.3-1.3-3-2-4.9-2s-3.6,0.7-4.9,2c-1.3,1.3-2,3-2,4.9c0,1.3,0.4,2.6,1.1,3.7h-1.7c-0.4,0-0.8,0.3-0.8,0.8S49.9,34.3,50.3,34.3z    M52.5,29.1c0-1.4,0.6-2.8,1.6-3.8c1-1,2.4-1.6,3.8-1.6c1.4,0,2.8,0.6,3.8,1.6c1,1,1.6,2.4,1.6,3.8c0,1.4-0.5,2.7-1.5,3.7H54   C53,31.8,52.5,30.5,52.5,29.1z"/><path d="M50.1,63.3h15.6c0.3,0,0.5-0.1,0.6-0.3c0.1-0.2,0.2-0.5,0-0.7c-4-8.5-3.7-17.4-3-24.3c0-0.2,0-0.4-0.2-0.6   c-0.1-0.2-0.3-0.2-0.6-0.2h-9.5c-0.2,0-0.4,0.1-0.6,0.2c-0.1,0.2-0.2,0.4-0.2,0.6c0.7,6.8,1,15.8-3,24.3c-0.1,0.2-0.1,0.5,0,0.7   C49.6,63.2,49.8,63.3,50.1,63.3z M54,38.6h7.8c-0.6,6.6-0.7,15,2.7,23.1H51.2C54.7,53.6,54.6,45.3,54,38.6z"/><path d="M43.8,78.2c-0.1,0.2,0,0.5,0.1,0.7c0.1,0.2,0.4,0.3,0.6,0.3h26.7c0.2,0,0.5-0.1,0.6-0.3c0.1-0.2,0.2-0.4,0.1-0.7L69.8,71   c-0.1-0.3-0.4-0.5-0.7-0.5H46.8c-0.3,0-0.6,0.2-0.7,0.5L43.8,78.2z M47.3,72h21.2l1.7,5.6H45.6L47.3,72z"/><path d="M49.3,67.6h17.3c0.4,0,0.8-0.3,0.8-0.8c0-0.4-0.3-0.8-0.8-0.8H49.3c-0.4,0-0.8,0.3-0.8,0.8C48.5,67.2,48.9,67.6,49.3,67.6z   "/><path d="M8.5,7.5C8.6,7.6,8.8,7.7,9,7.7c0.2,0,0.4-0.1,0.5-0.2c0.3-0.3,0.3-0.8,0-1.1L7.9,4.8c-0.3-0.3-0.8-0.3-1.1,0   c-0.3,0.3-0.3,0.8,0,1.1L8.5,7.5z"/><path d="M13.9,12.8c0.1,0.1,0.3,0.2,0.5,0.2c0.2,0,0.4-0.1,0.5-0.2c0.3-0.3,0.3-0.8,0-1.1l-1.7-1.7c-0.3-0.3-0.8-0.3-1.1,0   c-0.3,0.3-0.3,0.8,0,1.1L13.9,12.8z"/><path d="M7.4,13.1c0.2,0,0.4-0.1,0.5-0.2l1.7-1.7c0.3-0.3,0.3-0.8,0-1.1c-0.3-0.3-0.8-0.3-1.1,0l-1.7,1.7c-0.3,0.3-0.3,0.8,0,1.1   C7,13,7.2,13.1,7.4,13.1z"/><path d="M12.7,7.7c0.2,0,0.4-0.1,0.5-0.2l1.7-1.7c0.3-0.3,0.3-0.8,0-1.1c-0.3-0.3-0.8-0.3-1.1,0l-1.7,1.7c-0.3,0.3-0.3,0.8,0,1.1   C12.4,7.6,12.5,7.7,12.7,7.7z"/><path d="M104.3,114.8c-0.3-0.3-0.8-0.3-1.1,0c-0.3,0.3-0.3,0.8,0,1.1l1.7,1.7c0.1,0.1,0.3,0.2,0.5,0.2s0.4-0.1,0.5-0.2   c0.3-0.3,0.3-0.8,0-1.1L104.3,114.8z"/><path d="M109.7,120.2c-0.3-0.3-0.8-0.3-1.1,0c-0.3,0.3-0.3,0.8,0,1.1l1.7,1.7c0.1,0.1,0.3,0.2,0.5,0.2c0.2,0,0.4-0.1,0.5-0.2   c0.3-0.3,0.3-0.8,0-1.1L109.7,120.2z"/><path d="M104.9,120.2l-1.7,1.7c-0.3,0.3-0.3,0.8,0,1.1c0.1,0.1,0.3,0.2,0.5,0.2c0.2,0,0.4-0.1,0.5-0.2l1.7-1.7   c0.3-0.3,0.3-0.8,0-1.1C105.7,119.9,105.2,119.9,104.9,120.2z"/><path d="M110.3,114.8l-1.7,1.7c-0.3,0.3-0.3,0.8,0,1.1c0.1,0.1,0.3,0.2,0.5,0.2c0.2,0,0.4-0.1,0.5-0.2l1.7-1.7   c0.3-0.3,0.3-0.8,0-1.1C111,114.5,110.6,114.5,110.3,114.8z"/><path d="M71.5,98.9c-0.3-0.3-0.8-0.3-1.1,0c-0.3,0.3-0.3,0.8,0,1.1l1.7,1.7c0.1,0.1,0.3,0.2,0.5,0.2c0.2,0,0.4-0.1,0.5-0.2   c0.3-0.3,0.3-0.8,0-1.1L71.5,98.9z"/><path d="M76.8,104.3c-0.3-0.3-0.8-0.3-1.1,0c-0.3,0.3-0.3,0.8,0,1.1l1.7,1.7c0.1,0.1,0.3,0.2,0.5,0.2c0.2,0,0.4-0.1,0.5-0.2   c0.3-0.3,0.3-0.8,0-1.1L76.8,104.3z"/><path d="M72.1,104.3l-1.7,1.7c-0.3,0.3-0.3,0.8,0,1.1c0.1,0.1,0.3,0.2,0.5,0.2c0.2,0,0.4-0.1,0.5-0.2l1.7-1.7   c0.3-0.3,0.3-0.8,0-1.1C72.8,104,72.4,104,72.1,104.3z"/><path d="M77.4,98.9l-1.7,1.7c-0.3,0.3-0.3,0.8,0,1.1c0.1,0.1,0.3,0.2,0.5,0.2c0.2,0,0.4-0.1,0.5-0.2l1.7-1.7c0.3-0.3,0.3-0.8,0-1.1   C78.2,98.6,77.7,98.6,77.4,98.9z"/><path d="M8.7,53v12.2c0,0.4,0.3,0.8,0.8,0.8s0.8-0.3,0.8-0.8V53c0-0.4-0.3-0.8-0.8-0.8S8.7,52.6,8.7,53z"/><path d="M9.4,70.1c-0.4,0-0.8,0.3-0.8,0.8v4.4C8.7,75.7,9,76,9.4,76s0.8-0.3,0.8-0.8v-4.4C10.2,70.5,9.8,70.1,9.4,70.1z"/><path d="M123.1,77.8c-0.4,0-0.8,0.3-0.8,0.8v12.2c0,0.4,0.3,0.8,0.8,0.8c0.4,0,0.8-0.3,0.8-0.8V78.6   C123.9,78.2,123.5,77.8,123.1,77.8z"/><path d="M123.1,95.7c-0.4,0-0.8,0.3-0.8,0.8v4.4c0,0.4,0.3,0.8,0.8,0.8c0.4,0,0.8-0.3,0.8-0.8v-4.4C123.9,96,123.5,95.7,123.1,95.7   z"/><path d="M30,88.3c2,0,3.6-1.6,3.6-3.6S32,81.1,30,81.1c-2,0-3.6,1.6-3.6,3.6S28,88.3,30,88.3z M30,82.6c1.2,0,2.1,0.9,2.1,2.1   c0,1.2-0.9,2.1-2.1,2.1c-1.2,0-2.1-0.9-2.1-2.1C27.9,83.5,28.8,82.6,30,82.6z"/><path d="M115.6,26.8c-2,0-3.6,1.6-3.6,3.6c0,2,1.6,3.6,3.6,3.6c2,0,3.6-1.6,3.6-3.6C119.2,28.4,117.6,26.8,115.6,26.8z M115.6,32.5   c-1.1,0-2.1-0.9-2.1-2.1c0-1.2,0.9-2.1,2.1-2.1c1.2,0,2.1,0.9,2.1,2.1C117.7,31.6,116.8,32.5,115.6,32.5z"/><path d="M28.3,107.5c0-0.4-0.3-0.8-0.8-0.8H11.6c-0.4,0-0.8,0.3-0.8,0.8s0.3,0.8,0.8,0.8h15.9C28,108.3,28.3,108,28.3,107.5z"/><path d="M6.4,106.8H1.3c-0.4,0-0.8,0.3-0.8,0.8s0.3,0.8,0.8,0.8h5.2c0.4,0,0.8-0.3,0.8-0.8S6.8,106.8,6.4,106.8z"/><path d="M1.3,102.8h11.1c0.4,0,0.8-0.3,0.8-0.8s-0.3-0.8-0.8-0.8H1.3c-0.4,0-0.8,0.3-0.8,0.8S0.8,102.8,1.3,102.8z"/><path d="M17.1,102.8h3.6c0.4,0,0.8-0.3,0.8-0.8s-0.3-0.8-0.8-0.8h-3.6c-0.4,0-0.8,0.3-0.8,0.8S16.7,102.8,17.1,102.8z"/><path d="M100.5,6.9h15.9c0.4,0,0.8-0.3,0.8-0.8c0-0.4-0.3-0.8-0.8-0.8h-15.9c-0.4,0-0.8,0.3-0.8,0.8C99.7,6.5,100,6.9,100.5,6.9z"/><path d="M121.6,6.9h5.1c0.4,0,0.8-0.3,0.8-0.8c0-0.4-0.3-0.8-0.8-0.8h-5.1c-0.4,0-0.8,0.3-0.8,0.8C120.8,6.5,121.2,6.9,121.6,6.9z"/><path d="M126.7,10.8h-11.1c-0.4,0-0.8,0.3-0.8,0.8s0.3,0.8,0.8,0.8h11.1c0.4,0,0.8-0.3,0.8-0.8S127.2,10.8,126.7,10.8z"/><path d="M107.3,10.8c-0.4,0-0.8,0.3-0.8,0.8s0.3,0.8,0.8,0.8h3.6c0.4,0,0.8-0.3,0.8-0.8s-0.3-0.8-0.8-0.8H107.3z"/><path d="M60,13.9c0.4,0,0.8-0.3,0.8-0.8V1.3c0-0.4-0.3-0.8-0.8-0.8s-0.8,0.3-0.8,0.8v11.9C59.2,13.5,59.5,13.9,60,13.9z"/><path d="M44.8,17.5c0.1,0.2,0.4,0.4,0.6,0.4c0.1,0,0.3,0,0.4-0.1c0.4-0.2,0.5-0.7,0.3-1L40,6.5c-0.2-0.4-0.7-0.5-1-0.3   c-0.4,0.2-0.5,0.7-0.3,1L44.8,17.5z"/><path d="M24.4,22.4l10.3,5.9c0.1,0.1,0.2,0.1,0.4,0.1c0.3,0,0.5-0.1,0.7-0.4c0.2-0.4,0.1-0.8-0.3-1l-10.3-5.9   c-0.4-0.2-0.8-0.1-1,0.3C24,21.7,24.1,22.2,24.4,22.4z"/><path d="M19.6,42.6C19.6,42.6,19.6,42.6,19.6,42.6l11.9-0.1c0.4,0,0.8-0.3,0.7-0.8c0-0.4-0.3-0.7-0.8-0.7c0,0,0,0,0,0l-11.9,0.1   c-0.4,0-0.8,0.3-0.7,0.8C18.8,42.3,19.2,42.6,19.6,42.6z"/><path d="M24.4,62.3c0.1,0.2,0.4,0.4,0.7,0.4c0.1,0,0.3,0,0.4-0.1l10.3-6c0.4-0.2,0.5-0.7,0.3-1c-0.2-0.4-0.7-0.5-1-0.3l-10.3,6   C24.3,61.5,24.2,62,24.4,62.3z"/><path d="M52.5,14c0.1,0.3,0.4,0.5,0.7,0.5c0.1,0,0.2,0,0.2,0c0.4-0.1,0.6-0.5,0.5-0.9l-2.1-6.8c-0.1-0.4-0.5-0.6-0.9-0.5   c-0.4,0.1-0.6,0.5-0.5,0.9L52.5,14z"/><path d="M39.7,21.5c0.1,0.1,0.3,0.2,0.5,0.2c0.2,0,0.4-0.1,0.6-0.2c0.3-0.3,0.3-0.8,0-1.1l-5.3-4.8c-0.3-0.3-0.8-0.3-1.1,0   c-0.3,0.3-0.3,0.8,0,1.1L39.7,21.5z"/><path d="M33.2,33.8c0.1-0.4-0.2-0.8-0.6-0.9l-7-1.5c-0.4-0.1-0.8,0.2-0.9,0.6c-0.1,0.4,0.2,0.8,0.6,0.9l7,1.5c0.1,0,0.1,0,0.2,0   C32.8,34.4,33.1,34.1,33.2,33.8z"/><path d="M25.1,49.9c-0.4,0.1-0.6,0.5-0.5,0.9c0.1,0.3,0.4,0.5,0.7,0.5c0.1,0,0.2,0,0.2,0l6.8-2.2c0.4-0.1,0.6-0.5,0.5-0.9   c-0.1-0.4-0.6-0.6-0.9-0.5L25.1,49.9z"/><path d="M39.8,60.9c-0.3-0.3-0.8-0.3-1.1,0.1L34,66.3c-0.3,0.3-0.3,0.8,0.1,1.1c0.1,0.1,0.3,0.2,0.5,0.2c0.2,0,0.4-0.1,0.6-0.2   l4.8-5.3C40.1,61.7,40.1,61.2,39.8,60.9z"/><path d="M74.1,17.7c0.1,0.1,0.3,0.1,0.4,0.1c0.3,0,0.5-0.1,0.6-0.4l6-10.2c0.2-0.4,0.1-0.8-0.3-1c-0.4-0.2-0.8-0.1-1,0.3l-6,10.2   C73.6,17.1,73.7,17.5,74.1,17.7z"/><path d="M66.5,14.5c0.1,0,0.2,0,0.2,0c0.3,0,0.6-0.2,0.7-0.5l2.1-6.8c0.1-0.4-0.1-0.8-0.5-0.9c-0.4-0.1-0.8,0.1-0.9,0.5L66,13.6   C65.9,14,66.1,14.4,66.5,14.5z"/><path d="M79.2,21.4c0.1,0.2,0.4,0.2,0.6,0.2c0.2,0,0.4-0.1,0.5-0.2l5.3-4.8c0.3-0.3,0.3-0.8,0-1.1c-0.3-0.3-0.8-0.3-1.1,0l-5.3,4.8   C78.9,20.6,78.9,21.1,79.2,21.4z"/><path d="M110.3,53.9c-0.6-1.3-1-2.6-1.3-4l-1-5.7c-0.6-3.5-2.4-7-5.2-10.2c-8.7-10.1-19.9-10.6-20.4-10.6H72   c-0.4,0-0.8,0.3-0.8,0.8s0.3,0.8,0.8,0.8l10.4,0c0.1,0,11.1,0.5,19.3,10.1c2.6,3,4.3,6.3,4.9,9.5l1,5.7c0.3,1.5,0.7,3,1.4,4.4   l6.3,13.2c0.2,0.5,0.2,1-0.1,1.4c-0.3,0.4-0.7,0.7-1.2,0.7h-5.3c-0.4,0-0.8,0.3-0.8,0.8l0,11.8c0,0.3-0.8,6.3-7.5,6.6H89.8   c-0.4,0-0.8,0.3-0.8,0.8s0.3,0.8,0.8,0.8l2.8,0v14.8c0,0.4,0.3,0.8,0.8,0.8c0.4,0,0.8-0.3,0.8-0.8V90.5l6.4,0c8-0.4,8.9-7.9,9-8   V71.3h4.6c1,0,1.9-0.5,2.5-1.4c0.5-0.9,0.6-1.9,0.2-2.8L110.3,53.9z"/><path d="M58.6,85.2c0-0.4-0.3-0.8-0.8-0.8c-0.4,0-0.8,0.3-0.8,0.8v2c0,0.4,0.3,0.8,0.8,0.8c0.4,0,0.8-0.3,0.8-0.8V85.2z"/><path d="M58.6,90.9c0-0.4-0.3-0.8-0.8-0.8c-0.4,0-0.8,0.3-0.8,0.8v0.5c0,0.4,0.3,0.8,0.8,0.8c0.4,0,0.8-0.3,0.8-0.8V90.9z"/><path d="M58.6,95c0-0.4-0.3-0.8-0.8-0.8c-0.4,0-0.8,0.3-0.8,0.8v3.7c0,0.1,0,0.2,0,0.2c0,0.1,0,0.1,0,0.2v3.7   c0,0.4,0.3,0.8,0.8,0.8c0.4,0,0.8-0.3,0.8-0.8v-3.7c0-0.1,0-0.2,0-0.2c0-0.1,0-0.1,0-0.2V95z"/><path d="M26.9,120.7c0,0.4,0.3,0.8,0.8,0.8h3.7c0.1,0,0.2,0,0.2,0c0.1,0,0.1,0,0.2,0h3.7c0.4,0,0.8-0.3,0.8-0.8s-0.3-0.8-0.8-0.8   h-3.7c-0.1,0-0.2,0-0.2,0c-0.1,0-0.1,0-0.2,0h-3.7C27.2,119.9,26.9,120.3,26.9,120.7z"/><path d="M54.7,119.9c-0.4,0-0.7,0.3-0.7,0.8s0.4,0.8,0.8,0.8c0.2,0,0.3,0,0.5,0c0.4-0.1,0.7-0.4,0.7-0.8c-0.1-0.4-0.4-0.7-0.8-0.7   C55,119.9,54.9,119.9,54.7,119.9z"/><path d="M47.3,119.9c-0.1,0-0.2,0-0.2,0c-0.1,0-0.1,0-0.2,0h-3.7c-0.4,0-0.8,0.3-0.8,0.8s0.3,0.8,0.8,0.8h3.7c0.1,0,0.2,0,0.2,0   c0.1,0,0.1,0,0.2,0H51c0.4,0,0.8-0.3,0.8-0.8s-0.3-0.8-0.8-0.8H47.3z"/><path d="M19.8,121.5c0.4,0,0.8-0.3,0.8-0.8s-0.3-0.8-0.8-0.8h-3.7c-0.1,0-0.2,0-0.2,0c-0.1,0-0.2,0-0.2,0h-2   c-0.4,0-0.8,0.3-0.8,0.8s0.3,0.8,0.8,0.8h2c0.1,0,0.2,0,0.2,0c0.1,0,0.2,0,0.2,0H19.8z"/><path d="M23.5,119.9c-0.4,0-0.8,0.3-0.8,0.8s0.3,0.8,0.8,0.8h0.5c0.4,0,0.8-0.3,0.8-0.8s-0.3-0.8-0.8-0.8H23.5z"/><path d="M39.1,121.5h0.5c0.4,0,0.8-0.3,0.8-0.8s-0.3-0.8-0.8-0.8h-0.5c-0.4,0-0.8,0.3-0.8,0.8S38.7,121.5,39.1,121.5z"/><path d="M58.6,110.6c0-0.4-0.3-0.8-0.8-0.8c-0.4,0-0.8,0.3-0.8,0.8v3.7c0,0.1,0,0.2,0,0.2c0,0.1,0,0.1,0,0.2v2.8   c0,0.2,0,0.4-0.1,0.7c-0.1,0.4,0.1,0.8,0.5,0.9c0.1,0,0.1,0,0.2,0c0.3,0,0.6-0.2,0.7-0.5c0.1-0.3,0.1-0.7,0.1-1.1v-2.8   c0-0.1,0-0.2,0-0.2c0-0.1,0-0.1,0-0.2V110.6z"/><path d="M58.6,106.5c0-0.4-0.3-0.8-0.8-0.8c-0.4,0-0.8,0.3-0.8,0.8v0.5c0,0.4,0.3,0.8,0.8,0.8c0.4,0,0.8-0.3,0.8-0.8V106.5z"/><path d="M63.4,84.4c-0.4,0-0.8,0.3-0.8,0.8v36.5c0,2.3-1.9,4.3-4.3,4.3H19.2c-0.4,0-0.8,0.3-0.8,0.8s0.3,0.8,0.8,0.8h39.2   c3.2,0,5.8-2.6,5.8-5.8V85.2C64.2,84.8,63.8,84.4,63.4,84.4z"/><path d="M85.4,95.3c-0.4,0-0.8,0.3-0.8,0.8v2c0,0.1,0,0.2,0,0.3c0,0.1,0,0.2,0,0.3v4c0,0.4,0.3,0.8,0.8,0.8c0.4,0,0.8-0.3,0.8-0.8   v-4c0-0.1,0-0.2,0-0.3c0-0.1,0-0.2,0-0.3v-2C86.1,95.6,85.8,95.3,85.4,95.3z"/><path d="M85.4,103.8c-0.4,0-0.8,0.3-0.8,0.8v0.5c0,0.4,0.3,0.8,0.8,0.8c0.4,0,0.8-0.3,0.8-0.8v-0.5   C86.1,104.2,85.8,103.8,85.4,103.8z"/><path d="M85.4,121.4c-0.4,0-0.8,0.3-0.8,0.8v2c0,0.4,0.3,0.8,0.8,0.8c0.4,0,0.8-0.3,0.8-0.8v-2C86.1,121.7,85.8,121.4,85.4,121.4z"/><path d="M85.4,116.9c-0.4,0-0.8,0.3-0.8,0.8v0.5c0,0.4,0.3,0.8,0.8,0.8c0.4,0,0.8-0.3,0.8-0.8v-0.5   C86.1,117.2,85.8,116.9,85.4,116.9z"/><path d="M85.4,108.3c-0.4,0-0.8,0.3-0.8,0.8v2c0,0.1,0,0.2,0,0.3c0,0.1,0,0.2,0,0.3v4c0,0.4,0.3,0.8,0.8,0.8c0.4,0,0.8-0.3,0.8-0.8   v-4c0-0.1,0-0.2,0-0.3c0-0.1,0-0.2,0-0.3v-2C86.1,108.7,85.8,108.3,85.4,108.3z"/><path d="M102.9,52.1C102.9,52.1,102.9,52.1,102.9,52.1c0.4,0,0.8-0.3,0.8-0.7c0.9-13.6-10.9-19.2-11.1-19.2c-0.4-0.2-0.8,0-1,0.4   c-0.2,0.4,0,0.8,0.4,1c0.4,0.2,11,5.2,10.2,17.8C102.1,51.7,102.5,52.1,102.9,52.1z"/></g></svg>