<svg xmlns="http://www.w3.org/2000/svg" xmlns:xlink="http://www.w3.org/1999/xlink" version="1.1" x="0px" y="0px" viewBox="0 0 100 125" style="enable-background:new 0 0 100 100;" xml:space="preserve"><path d="M50.3,4.9c-24.8,0-45,20.2-45,45s20.2,45,45,45s45-20.2,45-45S75.2,4.9,50.3,4.9z M50.3,92.9c-23.7,0-43-19.3-43-43  s19.3-43,43-43s43,19.3,43,43S74,92.9,50.3,92.9z M50.3,11.3c-21.3,0-38.7,17.3-38.7,38.7c0,21.3,17.3,38.7,38.7,38.7  S89,71.2,89,49.9C89,28.6,71.7,11.3,50.3,11.3z M50.3,86.6c-20.2,0-36.7-16.4-36.7-36.7c0-20.2,16.4-36.7,36.7-36.7S87,29.7,87,49.9  C87,70.1,70.6,86.6,50.3,86.6z M50,26c0.6,0,1-0.4,1-1v-7c0-0.6-0.4-1-1-1s-1,0.4-1,1v7C49,25.6,49.4,26,50,26z M37.6,29.5  c0.2,0,0.3,0,0.5-0.1c0.5-0.3,0.6-0.9,0.4-1.4l-3.5-6.1c-0.3-0.5-0.9-0.6-1.4-0.4c-0.5,0.3-0.6,0.9-0.4,1.4l3.5,6.1  C36.9,29.3,37.2,29.5,37.6,29.5z M29.1,36.9L23,33.4c-0.5-0.3-1.1-0.1-1.4,0.4c-0.3,0.5-0.1,1.1,0.4,1.4l6.1,3.5  c0.2,0.1,0.3,0.1,0.5,0.1c0.3,0,0.7-0.2,0.9-0.5C29.7,37.8,29.6,37.2,29.1,36.9z M26,50c0-0.6-0.4-1-1-1h-7c-0.6,0-1,0.4-1,1  s0.4,1,1,1h7C25.6,51,26,50.6,26,50z M27.9,61.8l-6.1,3.5c-0.5,0.3-0.6,0.9-0.4,1.4c0.2,0.3,0.5,0.5,0.9,0.5c0.2,0,0.3,0,0.5-0.1  l6.1-3.5c0.5-0.3,0.6-0.9,0.4-1.4C29,61.7,28.4,61.5,27.9,61.8z M38.2,71c-0.5-0.3-1.1-0.1-1.4,0.4l-3.5,6.1  c-0.3,0.5-0.1,1.1,0.4,1.4c0.2,0.1,0.3,0.1,0.5,0.1c0.3,0,0.7-0.2,0.9-0.5l3.5-6.1C38.9,71.9,38.7,71.3,38.2,71z M50,74  c-0.6,0-1,0.4-1,1v7c0,0.6,0.4,1,1,1s1-0.4,1-1v-7C51,74.4,50.6,74,50,74z M63.4,71.3c-0.3-0.5-0.9-0.6-1.4-0.4  c-0.5,0.3-0.6,0.9-0.4,1.4l3.5,6.1c0.2,0.3,0.5,0.5,0.9,0.5c0.2,0,0.3,0,0.5-0.1c0.5-0.3,0.6-0.9,0.4-1.4L63.4,71.3z M78.4,65.4  l-6.1-3.5c-0.5-0.3-1.1-0.1-1.4,0.4s-0.1,1.1,0.4,1.4l6.1,3.5c0.2,0.1,0.3,0.1,0.5,0.1c0.3,0,0.7-0.2,0.9-0.5  C79.1,66.3,78.9,65.7,78.4,65.4z M82,49h-7c-0.6,0-1,0.4-1,1s0.4,1,1,1h7c0.6,0,1-0.4,1-1S82.6,49,82,49z M71.7,38.7  c0.2,0,0.3,0,0.5-0.1l6.1-3.5c0.5-0.3,0.6-0.9,0.4-1.4c-0.3-0.5-0.9-0.6-1.4-0.4l-6.1,3.5c-0.5,0.3-0.6,0.9-0.4,1.4  C71.1,38.5,71.4,38.7,71.7,38.7z M66.7,21.7c-0.5-0.3-1.1-0.1-1.4,0.4l-3.5,6.1c-0.3,0.5-0.1,1.1,0.4,1.4c0.2,0.1,0.3,0.1,0.5,0.1  c0.3,0,0.7-0.2,0.9-0.5l3.5-6.1C67.4,22.6,67.2,22,66.7,21.7z M57.3,28.4c-0.5-0.2-1.1,0.1-1.3,0.6l-5.6,17.4c0,0,0,0-0.1,0  c-0.9,0-1.7,0.4-2.3,0.9l-9.9-5.9c-0.5-0.3-1.1-0.1-1.4,0.3c-0.3,0.5-0.1,1.1,0.3,1.4l9.9,5.9c-0.1,0.3-0.1,0.5-0.1,0.8  c0,1.9,1.5,3.5,3.5,3.5s3.5-1.5,3.5-3.5c0-1.2-0.6-2.2-1.5-2.8L58,29.7C58.1,29.1,57.8,28.6,57.3,28.4z"/></svg>