<svg xmlns:dc="http://purl.org/dc/elements/1.1/" xmlns:cc="http://creativecommons.org/ns#" xmlns:rdf="http://www.w3.org/1999/02/22-rdf-syntax-ns#" xmlns:svg="http://www.w3.org/2000/svg" xmlns="http://www.w3.org/2000/svg" xmlns:sodipodi="http://sodipodi.sourceforge.net/DTD/sodipodi-0.dtd" xmlns:inkscape="http://www.inkscape.org/namespaces/inkscape" version="1.1" x="0px" y="0px" viewBox="0 0 100 125"><g transform="translate(0,-952.36218)"><path d="m 50,963.36217 c -21.55095,0 -39,17.4491 -39,39.00003 0,21.5508 17.44905,39 39,39 21.55095,0 39,-17.4492 39,-39 0,-21.55093 -17.44905,-39.00003 -39,-39.00003 z m 0.125,3 c 0.48063,0.061 0.87875,0.5156 0.875,1 l 0,4 c 0.007,0.5283 -0.47163,1.0142 -1,1.0142 -0.52837,0 -1.00747,-0.4859 -1,-1.0142 l 0,-4 c -0.004,-0.568 0.56147,-1.071 1.125,-1 z M 50,976.38057 c 1,0 1,1 1,1 0.27482,7.1668 0.56122,14.2839 0.8437,21.4506 1.28019,0.667 2.15625,1.98783 2.15625,3.53133 0,0.4369 -0.0892,0.8563 -0.21875,1.25 3.0041,3.3712 5.98533,6.7639 8.99995,10.1252 0.36827,0.3763 0.36089,1.0538 -0.0155,1.422 -0.37639,0.3682 -1.05389,0.3607 -1.422,-0.016 l -10.125,-9 c -0.38534,0.1235 -0.79239,0.2188 -1.21875,0.2188 -2.20914,0 -4,-1.7909 -4,-4 0,-1.5338 0.85791,-2.86013 2.125,-3.53133 0.28847,-7.1669 0.59401,-14.2836 0.8751,-21.4506 0,0 0,-1 1,-1 z m 25.43178,0.501 c 0.36033,0.3854 0.43657,1.0753 0.0369,1.4493 l -2.84375,2.8437 c -0.37631,0.3682 -1.05367,0.3607 -1.42182,-0.016 -0.36816,-0.3763 -0.36074,-1.0536 0.0156,-1.4218 l 2.8125,-2.8126 c 0.78697,-0.4905 0.72834,-0.2754 1.40055,-0.043 z m -49.46308,0.043 2.8125,2.8126 c 0.37631,0.3682 0.38373,1.0455 0.0156,1.4218 -0.36815,0.3763 -1.04551,0.3838 -1.42182,0.016 l -2.84375,-2.8437 c -0.38452,-0.3581 -0.29336,-0.9812 0.0304,-1.3735 0.68553,-0.4567 0.80229,-0.3917 1.40709,-0.033 z m 59.125,24.43763 c 0.5236,0.024 0.97767,0.5233 0.95312,1.0469 -0.0245,0.5236 -0.52327,0.9776 -1.04687,0.9531 l -4,0 c -0.52831,0.01 -1.01424,-0.4716 -1.01424,-1 0,-0.5284 0.48593,-1.0075 1.01424,-1 1.42316,0 2.86967,0 4.09375,0 z m -66,0 c 0.5236,0.024 0.97767,0.5233 0.95312,1.0469 -0.0245,0.5236 -0.52327,0.9776 -1.04687,0.9531 l -4,0 c -0.52831,0.01 -1.01424,-0.4716 -1.01424,-1 0,-0.5284 0.48593,-1.0075 1.01424,-1 1.42316,0 2.86967,0 4.09375,0 z m 53.53125,22.2187 2.84375,2.8437 c 0.36817,0.3763 0.36074,1.0537 -0.0156,1.4219 -0.37634,0.3682 -1.05373,0.3607 -1.4219,-0.016 l -2.8125,-2.8437 c -0.37337,-0.3597 -0.29328,-0.9811 0.0247,-1.3704 0.64465,-0.4832 0.77207,-0.3316 1.38153,-0.036 z m -43.92605,-0.055 c 0.3823,0.3703 0.47334,1.072 0.0823,1.4612 l -2.8125,2.8437 c -0.36817,0.3763 -1.04556,0.3838 -1.4219,0.016 -0.37634,-0.3682 -0.38377,-1.0456 -0.0156,-1.4219 l 2.84375,-2.8437 c 0.69828,-0.4759 0.68712,-0.2522 1.32395,-0.055 z m 21.42605,8.8364 c 0.48063,0.061 0.87875,0.5156 0.875,1 l 0,4 c 0.007,0.5283 -0.47163,1.0142 -1,1.0142 -0.52837,0 -1.00747,-0.4859 -1,-1.0142 l 0,-4 c -0.004,-0.568 0.56147,-1.071 1.125,-1 z" style="text-indent:0;text-transform:none;direction:ltr;block-progression:tb;baseline-shift:baseline;color:#000000;enable-background:accumulate;" fill="#000000" fill-opacity="1" stroke="none" marker="none" visibility="visible" display="inline" overflow="visible"/></g></svg>