<svg xmlns="http://www.w3.org/2000/svg" xmlns:xlink="http://www.w3.org/1999/xlink" version="1.1" x="0px" y="0px" viewBox="0 0 90 112.5" enable-background="new 0 0 90 90" xml:space="preserve"><path d="M23.287,19.074c-1.501,0-2.718-1.216-2.718-2.718V5.1c0-1.503,1.217-2.719,2.718-2.719s2.717,1.216,2.717,2.719v11.257  C26.004,17.858,24.788,19.074,23.287,19.074z"/><path d="M56.504,19.074c-1.501,0-2.718-1.216-2.718-2.718V5.1c0-1.503,1.217-2.719,2.718-2.719c1.5,0,2.717,1.216,2.717,2.719  v11.257C59.221,17.858,58.004,19.074,56.504,19.074z"/><path d="M29.02,71.936h-3.163V57.277h2.336c0.132-0.647,0.289-1.281,0.462-1.908h-2.798V41.182h11.77  c1.012-0.875,2.085-1.678,3.211-2.406V25.544h13.076v8.729c0.629-0.055,1.266-0.091,1.906-0.104v-8.625h11.562v10.731  c1.208,0.491,2.373,1.063,3.493,1.707V16.743c0-3.53-2.873-6.404-6.404-6.404h-2.726v6.018c0,2.894-2.347,5.24-5.24,5.24  c-2.896,0-5.241-2.347-5.241-5.24v-6.018H28.527v6.018c0,2.894-2.346,5.24-5.24,5.24s-5.241-2.347-5.241-5.24v-6.018h-2.725  c-3.532,0-6.405,2.874-6.405,6.404v52.28c0,3.533,2.873,6.408,6.405,6.408h15.085C29.869,74.303,29.408,73.137,29.02,71.936z   M25.856,25.544h13.075v13.732H25.856V25.544z M23.95,71.936h-8.629c-1.604,0-2.911-1.306-2.911-2.91V57.277h11.54V71.936z   M23.95,55.369H12.41V41.182h11.54V55.369z M23.95,39.276H12.41V25.544h11.54V39.276z"/><polygon points="68.414,59.209 60.334,59.209 60.334,51.127 52.673,51.127 52.673,59.209 44.593,59.209 44.593,66.868   52.673,66.868 52.673,74.95 60.334,74.95 60.334,66.868 68.414,66.868 "/><path d="M56.505,87.619c-13.554,0-24.579-11.026-24.579-24.581c0-13.554,11.025-24.578,24.579-24.578  c13.552,0,24.579,11.024,24.579,24.578C81.084,76.593,70.057,87.619,56.505,87.619z M56.505,44.121  c-10.432,0-18.919,8.484-18.919,18.917s8.487,18.92,18.919,18.92c10.433,0,18.917-8.487,18.917-18.92S66.938,44.121,56.505,44.121z"/></svg>