<svg xmlns:dc="http://purl.org/dc/elements/1.1/" xmlns:cc="http://creativecommons.org/ns#" xmlns:rdf="http://www.w3.org/1999/02/22-rdf-syntax-ns#" xmlns:svg="http://www.w3.org/2000/svg" xmlns="http://www.w3.org/2000/svg" xmlns:sodipodi="http://sodipodi.sourceforge.net/DTD/sodipodi-0.dtd" xmlns:inkscape="http://www.inkscape.org/namespaces/inkscape" version="1.1" x="0px" y="0px" viewBox="0 0 100 125"><g transform="translate(0,-952.36218)"><path d="m 44.468924,958.4036 c -6.39939,0 -10.48292,2.49311 -12.68698,6.55942 -2.05863,3.798 -2.59153,8.80849 -2.65614,14.43072 -2.00607,0.52187 -2.06389,2.54128 -2.06242,4.18549 0.39554,2.32896 1.9246,4.92486 3.87484,5.7473 1.00509,3.38992 2.37708,6.88624 4.15608,10.05777 1.01531,1.81 2.17676,3.52 3.46861,5.0289 -6.56223,2.9546 -16.12029,4.6132 -22.561529,8.1836 -2.03377,1.5842 -3.83866,4.3056 -4.90605,7.4652 -0.71629,8.3859 -1.39978,16.831 -2.09366,25.2382 -0.034,0.5437 0.4549,1.063 0.99996,1.062 l 79.996729,0 c 0.54506,10e-4 1.03397,-0.5183 0.99996,-1.062 -0.74927,-8.3997 -1.309,-16.8619 -2.09361,-25.2382 -1.10937,-3.2838 -3.65062,-6.3536 -6.09351,-7.5589 -7.90155,-3.2729 -14.31196,-5.4909 -21.49907,-8.0275 1.37495,-1.5627 2.60373,-3.3335 3.68735,-5.21629 1.81503,-3.15354 3.22204,-6.62465 4.24983,-9.96407 2.10937,-0.97879 3.26185,-3.6847 3.68735,-5.71606 -0.17736,-2.0858 -0.49131,-3.2979 -1.84368,-4.1543 -0.0341,-5.67903 -0.58217,-10.69302 -2.65614,-14.4932 -2.21033,-4.05005 -6.27818,-6.51942 -12.65573,-6.52818 -3.83844,-0.11152 -7.78388,0.0427 -11.31219,10e-5 z m 20.56166,13.27507 c 2.04707,2.80921 3.21091,6.8663 2.96863,9.62048 -0.034,0.50425 0.37334,0.99862 0.87496,1.062 -0.75625,4.71592 -2.69467,10.80782 -5.62477,15.89878 -3.32886,5.78377 -7.83195,10.12027 -13.31195,10.12027 -5.48892,0 -9.90427,-4.2545 -13.12447,-9.99533 -2.84449,-5.07104 -4.68607,-11.20062 -5.46852,-16.05496 0.38132,-0.13956 0.65555,-0.53115 0.65622,-0.93706 0.0441,-3.32753 0.86246,-6.79158 2.74989,-9.21442 1.86474,-2.39371 4.71824,-3.90267 9.43711,-3.49835 4.22583,2.85459 9.8121,1.70513 12.99947,-0.0625 3.18533,-0.71427 6.24391,0.73178 7.84343,3.06109 z m -26.62391,34.92113 c 3.03609,5.6631 5.34115,10.2643 8.62465,15.6177 0.80104,1.3396 1.96867,3.1419 2.84363,3.1547 1.12495,-0.013 2.22222,-2.0987 2.87488,-3.1547 3.04445,-5.1988 5.74462,-10.0699 8.5934,-15.6177 0.83974,0.2971 1.61634,0.6018 2.46865,0.9058 4.03501,3.621 5.75746,8.904 6.031,14.0247 -1.68584,0.4676 -2.96862,2.0128 -2.96862,3.8419 0,2.1964 1.80253,3.9981 3.99983,3.9981 2.1973,0 3.99984,-1.8017 3.99984,-3.9981 0,-1.8635 -1.29713,-3.4385 -3.03113,-3.8732 -0.46185,-4.685 -1.48794,-8.8194 -3.87484,-12.4941 4.68306,1.8393 9.34815,3.0605 13.96818,5.2788 1.58773,0.7834 4.05595,3.6583 4.9998,6.3408 l 1.96867,23.7388 -77.809329,0 1.96867,-23.7388 c 0.96385,-2.7891 2.59411,-5.2178 4.15608,-6.4345 5.071779,-2.2739 9.463059,-3.4346 14.374419,-5.0914 -2.35394,3.4989 -4.19031,7.959 -4.62481,11.8694 -1.63658,0.2985 -3.03974,1.307 -4.03109,2.6863 -1.18922,1.6545 -1.85023,3.8505 -1.93742,6.1846 -0.0603,1.3677 -0.0325,2.8213 -0.0312,4.3417 9.1e-4,1.9068 0.75263,3.1801 1.56244,3.8419 0.42915,0.3724 0.96255,0.557 1.43734,0.7496 0.43087,0.1915 0.95844,-0.018 1.22851,-0.3918 0.31949,-0.4808 0.0624,-0.7665 -0.0723,-1.2012 -0.40945,-0.308 -0.90226,-0.4969 -1.31245,-0.7183 -0.39,-0.3187 -0.84303,-0.8524 -0.84371,-2.2802 -1.1e-4,-1.4267 -0.001,-3.0689 0,-4.2792 0.0741,-1.9852 0.68409,-3.8259 1.59368,-5.0914 0.9096,-1.2655 2.05203,-1.9366 3.40612,-1.9366 1.48463,0 2.64524,0.6307 3.5311,1.8429 0.88586,1.2122 1.43584,3.0193 1.46869,5.1539 -2e-4,1.3614 1.5e-4,2.7972 0,4.2792 -8.6e-4,1.4446 -0.45367,1.9885 -0.84371,2.3114 -0.57339,0.299 -0.93596,0.5172 -1.40615,0.8433 -0.27104,0.3914 -0.0351,0.7071 -0.003,1.0367 0.27502,0.4122 0.86504,0.639 1.31539,0.4001 0.50179,-0.1334 0.96111,-0.4599 1.37489,-0.7184 0.80979,-0.6705 1.5613,-1.9538 1.56244,-3.8732 -1.5e-4,-1.5085 3.4e-4,-2.8403 0,-4.3104 -0.0379,-2.4642 -0.67913,-4.642 -1.87492,-6.2783 -1.00289,-1.3724 -2.43966,-2.3186 -4.12484,-2.5926 0.97523,-4.592 2.31804,-8.9799 5.53103,-12.2442 1.26319,-0.9524 2.70132,-1.6541 3.90619,-2.124 z m 32.46742,16.7734 c 1.11647,0 1.99992,0.883 1.99992,1.999 0,1.116 -0.88345,1.9991 -1.99992,1.9991 -1.11646,0 -1.99992,-0.8831 -1.99992,-1.9991 0,-1.116 0.88346,-1.999 1.99992,-1.999 z m -2.28115,7.9962 c -0.52358,0.074 -0.93298,0.6167 -0.85934,1.1401 0.0736,0.5233 0.617,0.9326 1.14057,0.859 l 9.9996,0 c 0.52828,0.01 1.01419,-0.4714 1.01419,-0.9996 0,-0.5281 -0.48591,-1.007 -1.01419,-0.9995 -3.57118,0 -7.20274,0 -10.28083,0 z" style="text-indent:0;text-transform:none;direction:ltr;block-progression:tb;baseline-shift:baseline;color:#000000;enable-background:accumulate;" fill="#000000" fill-opacity="1" stroke="none" marker="none" visibility="visible" display="inline" overflow="visible"/></g></svg>