<svg xmlns="http://www.w3.org/2000/svg" xmlns:xlink="http://www.w3.org/1999/xlink" version="1.1" x="0px" y="0px" viewBox="0 0 100 125" style="enable-background:new 0 0 100 100;" xml:space="preserve"><path d="M87,31H65.4c2.6,0,16.7-10.4,10-18.3c-3.6-4.2-11.1-3.2-17.5,2.2c-4.3,3.6-6.6,9.1-7.4,13.4c-1.2-5.4-4.5-12.2-9.7-16.2  c-12.4-9.7-23.6-4.1-21.5,5.5C20.4,22.9,24.8,28.2,34,31H13c-2.8,0-5,2.2-5,5v15c0,0.6,0.4,1,1,1h2v36c0,2.8,2.2,5,5,5h68  c2.8,0,5-2.2,5-5V52h2c0.6,0,1-0.4,1-1V36C92,33.2,89.8,31,87,31z M56,91H44V33h12V91z M53,31c2.3-8.5,16.4-11.7,18.5-9.2  C73.3,24.2,66,31,53,31z M28.1,23.2c-1.1-3.9,5.8-4.3,12.2-0.4c3.1,1.9,5.5,5.5,6.7,8.3C41,31,29.6,28.7,28.1,23.2z M59.2,16.4  c5.5-4.7,11.8-5.7,14.7-2.4c2.4,2.8,0.9,6.9-1.4,9.7c0.3-0.9,0.4-1.8-0.2-2.5c-2.7-3.4-17.9,0.6-20.1,9.8H52  C52.6,25.5,55.1,19.9,59.2,16.4z M21.2,17.1c-1.7-8,7.8-11.7,18.3-3.5C44.5,17.5,48,24.5,49,31c0,0-1,0-1,0c-1.2-3-3.9-7.1-7.2-9.1  c-3.5-2.1-10.3-4.4-13-1.5c-2,2.2,0.2,5.5,2.6,7.3C26,25.4,22.2,21.7,21.2,17.1z M10,50V36c0-1.7,1.3-3,3-3h29v17H12H10z M13,88V51  h29v40H16C14.3,91,13,89.7,13,88z M87,88c0,1.7-1.3,3-3,3H58V51h29V88z M90,50h-2H58V33h29c1.7,0,3,1.3,3,3V50z"/></svg>