<svg xmlns="http://www.w3.org/2000/svg" xmlns:xlink="http://www.w3.org/1999/xlink" version="1.1" x="0px" y="0px" viewBox="0 0 512 640" enable-background="new 0 0 512 512" xml:space="preserve"><g><path d="M256,0C114.844,0,0,114.844,0,256s114.844,256,256,256s256-114.844,256-256S397.156,0,256,0z M424.125,424.141   c-21.797,21.828-47.234,38.984-75.578,50.969c-29.297,12.406-60.438,18.672-92.547,18.672s-63.25-6.266-92.547-18.672   c-28.344-11.984-53.766-29.141-75.594-50.984c-21.828-21.812-38.984-47.25-50.969-75.578C24.5,319.266,18.219,288.125,18.219,256   c0-32.109,6.281-63.25,18.672-92.562c11.984-28.297,29.141-53.734,50.969-75.562c21.859-21.859,47.297-39,75.594-50.969   c58.625-24.766,126.469-24.766,185.094,0c28.312,11.969,53.734,29.109,75.578,50.969c21.844,21.812,39,47.25,50.984,75.562   c12.391,29.344,18.672,60.469,18.672,92.562c0,32.109-6.281,63.25-18.672,92.547C463.125,376.891,445.969,402.312,424.125,424.141z   "/><path d="M183.062,198.703c7.906,0,14.328-6.438,14.328-14.344s-6.422-14.344-14.328-14.344s-14.344,6.438-14.344,14.344   S175.156,198.703,183.062,198.703z"/><path d="M328.938,198.703c7.906,0,14.344-6.438,14.344-14.344s-6.438-14.344-14.344-14.344s-14.328,6.438-14.328,14.344   S321.031,198.703,328.938,198.703z"/><path d="M383.375,339.922c-2.766,0-5.344,1.25-7.094,3.422c-4.75,6.438-9.625,12.047-15.438,17.875   c-13.688,13.672-29.594,24.406-47.312,31.906c-18.188,7.688-37.531,11.625-57.516,11.672c-20.016-0.047-39.359-3.984-57.547-11.672   c-17.719-7.5-33.625-18.234-47.312-31.906c-5.781-5.781-10.656-11.406-14.906-17.141c-2.281-2.906-4.875-4.156-7.625-4.156   c-5.031,0-9.109,4.094-9.109,9.109c0,1.938,0.594,3.781,1.719,5.344c31.328,43.5,80.438,68.516,134.766,68.656   c54.312-0.141,103.438-25.156,134.766-68.656c1.125-1.562,1.719-3.406,1.719-5.344   C392.484,344.016,388.406,339.922,383.375,339.922z"/></g></svg>