<svg xmlns="http://www.w3.org/2000/svg" viewBox="0 0 82.4 103" x="0px" y="0px"><title>health report</title><g data-name="Layer 2"><g data-name="Layer 1"><path d="M31.87,42.92,14.09,35.81A1.2,1.2,0,1,0,13.2,38L31,45.15a1.2,1.2,0,0,0,.89-2.23Z"/><path d="M79.92,1h0A5.64,5.64,0,0,0,74.66.4L41.2,13.79,7.74.4A5.65,5.65,0,0,0,0,5.64V62.53a5.62,5.62,0,0,0,3.55,5.24L39.1,82s.83.26,1,.3a5.72,5.72,0,0,0,1.09.11,5.81,5.81,0,0,0,1.11-.11c.16,0,1-.29,1.06-.32L78.85,67.77a5.62,5.62,0,0,0,3.55-5.24V5.64A5.64,5.64,0,0,0,79.92,1ZM80,62.53a3.23,3.23,0,0,1-2,3L42.56,79.71l-.16.05V26.29a1.2,1.2,0,1,0-2.4,0V79.76l-.09,0L4.44,65.55a3.23,3.23,0,0,1-2-3V5.64a3.24,3.24,0,0,1,4.45-3L40.75,16.19a1.2,1.2,0,0,0,.89,0L75.55,2.63a3.24,3.24,0,0,1,4.45,3Z"/><path d="M31.87,54.12,14.09,47a1.2,1.2,0,1,0-.89,2.23L31,56.35a1.2,1.2,0,0,0,.89-2.23Z"/><path d="M31.87,31.71,14.09,24.6a1.2,1.2,0,1,0-.89,2.23L31,33.94a1.2,1.2,0,1,0,.89-2.23Z"/><path d="M71.95,25.3a1.2,1.2,0,0,0-1.12-.12l-5.08,2V21.66a1.2,1.2,0,0,0-1.64-1.12l-6.38,2.54A1.2,1.2,0,0,0,57,24.2v6.53L50.53,33.3a1.2,1.2,0,0,0-.75,1.11v6.87a1.2,1.2,0,0,0,1.65,1.11l5.53-2.21v5.87a1.2,1.2,0,0,0,1.64,1.12L65,44.64a1.2,1.2,0,0,0,.76-1.11V36.67l6-2.4a1.2,1.2,0,0,0,.75-1.11V26.29A1.2,1.2,0,0,0,71.95,25.3Zm-1.87,7.05-6,2.39a1.2,1.2,0,0,0-.75,1.11v6.85l-4,1.58V38.41a1.2,1.2,0,0,0-1.65-1.12l-5.53,2.21V35.22l6.43-2.57a1.2,1.2,0,0,0,.75-1.11V25l4-1.58V29A1.2,1.2,0,0,0,65,30.1l5.09-2Z"/></g></g></svg>