<svg xmlns="http://www.w3.org/2000/svg" xmlns:xlink="http://www.w3.org/1999/xlink" version="1.1" x="0px" y="0px" viewBox="0 0 100 125" style="enable-background:new 0 0 100 100;" xml:space="preserve"><style type="text/css">
	.st0{fill:#0C0C0C;}
	.st1{fill:#FFFFFF;}
	.st2{fill:none;stroke:#0C0C0C;stroke-miterlimit:10;}
	.st3{fill:none;stroke:#FFFFFF;stroke-miterlimit:10;}
	.st4{fill:none;stroke:#0C0C0C;stroke-linejoin:round;stroke-miterlimit:10;}
	.st5{fill:none;stroke:#0C0C0C;stroke-linejoin:bevel;stroke-miterlimit:10;}
	.st6{fill:none;stroke:#FFFFFF;stroke-width:0.75;stroke-linejoin:bevel;stroke-miterlimit:10;}
	.st7{fill:none;stroke:#0C0C0C;stroke-width:4;stroke-miterlimit:10;}
	.st8{fill:none;stroke:#0C0C0C;stroke-width:0.75;stroke-linecap:round;stroke-miterlimit:10;}
	.st9{fill:none;stroke:#000000;stroke-linecap:round;stroke-miterlimit:10;}
	.st10{fill:none;stroke:#0C0C0C;stroke-width:2;stroke-miterlimit:10;}
	.st11{fill:none;stroke:#0C0C0C;stroke-width:0.75;stroke-miterlimit:10;}
	.st12{fill:none;stroke:#0C0C0C;stroke-linecap:round;stroke-linejoin:round;stroke-miterlimit:10;}
	.st13{fill:none;stroke:#0C0C0C;stroke-width:0.25;stroke-miterlimit:10;}
	.st14{fill:#0C0C0C;stroke:#0C0C0C;stroke-miterlimit:10;}
	.st15{fill:none;stroke:#FFFFFF;stroke-width:0.25;stroke-miterlimit:10;}
	.st16{fill:none;stroke:#0C0C0C;stroke-width:0.75;stroke-linecap:round;stroke-linejoin:round;stroke-miterlimit:10;}
	.st17{fill:none;stroke:#0C0C0C;stroke-width:0.75;stroke-linejoin:round;stroke-miterlimit:10;}
	.st18{fill:none;stroke:#0C0C0C;stroke-width:0.5105;stroke-miterlimit:10;}
	.st19{fill:none;stroke:#0C0C0C;stroke-width:1.0211;stroke-miterlimit:10;}
	.st20{fill:none;stroke:#0C0C0C;stroke-linecap:round;stroke-miterlimit:10;}
	.st21{fill:none;stroke:#000000;stroke-width:0.75;stroke-linecap:round;stroke-linejoin:round;stroke-miterlimit:10;}
	.st22{fill:none;}
	.st23{fill:none;stroke:#0C0C0C;stroke-width:0.5;stroke-linejoin:round;stroke-miterlimit:10;}
	.st24{fill:none;stroke:#0C0C0C;stroke-width:0.5;stroke-linecap:round;stroke-linejoin:round;stroke-miterlimit:10;}
	.st25{fill:none;stroke:#000000;stroke-width:0.75;stroke-miterlimit:10;}
	.st26{fill:none;stroke:#000000;stroke-width:0.5;stroke-miterlimit:10;}
	.st27{fill:#FFFFFF;stroke:#000000;stroke-miterlimit:10;}
</style><g><path class="st0" d="M50.1,5.5C27,5.5,8.3,24.2,8.3,47.3c0,14.9,7.8,27.9,19.5,35.4c6.5,4.1,22.3,12.1,22.3,12.1   s15.9-8,22.3-12.1c11.7-7.4,19.5-20.5,19.5-35.4C91.9,24.2,73.2,5.5,50.1,5.5z M50.1,70.4c-12.7,0-23-10.3-23-23s10.3-23,23-23   s23,10.3,23,23S62.8,70.4,50.1,70.4z"/></g><g><path class="st0" d="M50.1,25.7c-11.9,0-21.6,9.7-21.6,21.6S38.2,69,50.1,69s21.6-9.7,21.6-21.6   S62.1,25.7,50.1,25.7z M57.7,50H52v5.6h-4.2V50h-5.6v-4.2h5.6v-5.6H52v5.6h5.6V50z"/></g></svg>