<svg xmlns="http://www.w3.org/2000/svg" xmlns:xlink="http://www.w3.org/1999/xlink" version="1.1" x="0px" y="0px" viewBox="0 0 512 640" enable-background="new 0 0 512 512" xml:space="preserve"><g><path d="M395.1,2H116.9c6.1,49.9-39.6,86.7-81.8,81.8v84.8C38.1,423.7,256,510,256,510s215.7-82.8,220.9-341.4V83.8   C409.3,86.2,392.4,27.4,395.1,2z M460.5,168.6c0,137.9-80.1,264.4-204.5,323.4c-124.4-59-204.5-185.5-204.5-323.4V99.8   c43.1-3.9,77.5-38.3,81.4-81.4h246.1c3.9,43.1,38.3,77.5,81.4,81.4V168.6z"/><path d="M256,75.6c-76.7,0-139.1,62.4-139.1,139.1S179.3,353.7,256,353.7s139.1-62.4,139.1-139.1S332.7,75.6,256,75.6z M256,337.4   c-67.7,0-122.7-55-122.7-122.7S188.3,92,256,92s122.7,55,122.7,122.7S323.7,337.4,256,337.4z"/><path d="M280.5,132.9h-49.1v57.3h-57.3v49.1h57.3v57.3h49.1v-57.3h57.3v-49.1h-57.3V132.9z M321.4,206.5v16.4h-57.3v57.3h-16.4   v-57.3h-57.3v-16.4h57.3v-57.3h16.4v57.3H321.4z"/></g></svg>