<svg xmlns="http://www.w3.org/2000/svg" xmlns:xlink="http://www.w3.org/1999/xlink" xml:space="preserve" style="shape-rendering:geometricPrecision;text-rendering:geometricPrecision;image-rendering:optimizeQuality;" viewBox="0 0 6827 8533.75" x="0px" y="0px" fill-rule="evenodd" clip-rule="evenodd"><defs><style type="text/css">
   
    .fil2 {fill:none}
    .fil0 {fill:black}
    .fil1 {fill:black;fill-rule:nonzero}
   
  </style></defs><g><g><path class="fil0" d="M4886 2453l-324 0 0 326 -138 0 0 -326 -324 0 0 -136 324 0 0 -324 138 0 0 324 324 0 0 136zm-321 -1428l-2261 0 0 386c0,103 -83,186 -186,186 -103,0 -186,-83 -186,-186l0 -386 -884 0c-46,0 -83,37 -83,83l0 4783c0,46 37,83 83,83l4733 0c46,0 83,-37 83,-83l0 -4783c0,-46 -37,-83 -83,-83l-843 0 0 386c0,103 -83,186 -186,186 -103,0 -186,-83 -186,-186l0 -386zm-1318 1407l-1700 0c-46,0 -83,-37 -83,-83 0,-46 37,-83 83,-83l1700 0c46,0 83,37 83,83 0,46 -37,83 -83,83zm0 -500l-1700 0c-46,0 -83,-37 -83,-83 0,-46 37,-83 83,-83l1700 0c46,0 83,37 83,83 0,46 -37,83 -83,83zm0 1000l-1700 0c-46,0 -83,-37 -83,-83 0,-46 37,-83 83,-83l1700 0c46,0 83,37 83,83 0,46 -37,83 -83,83zm83 417c0,46 -37,83 -83,83l-1700 0c-46,0 -83,-37 -83,-83 0,-46 37,-83 83,-83l1700 0c46,0 83,37 83,83zm-271 494l394 1281 237 -770 0 0c13,-44 60,-68 103,-55 29,9 50,33 56,61l114 370 1374 0c46,0 83,37 83,83 0,46 -37,83 -83,83l-1433 0c-36,1 -70,-22 -81,-58l0 0 -55 -178 -235 764c-6,28 -27,52 -56,61 -44,13 -90,-11 -103,-55l0 0 -395 -1287 -208 678c-8,37 -41,65 -81,65l-1198 0c-46,0 -83,-37 -83,-83 0,-46 37,-83 83,-83l1137 0 271 -882 0 0c13,-44 60,-68 103,-55 29,9 50,33 56,61z"/><path class="fil1" d="M2200 936c0,-46 -37,-83 -83,-83 -46,0 -83,37 -83,83l0 475c0,46 37,83 83,83 46,0 83,-37 83,-83l0 -475z"/><path class="fil1" d="M4833 936c0,-46 -37,-83 -83,-83 -46,0 -83,37 -83,83l0 475c0,46 37,83 83,83 46,0 83,-37 83,-83l0 -475z"/></g></g><rect class="fil2" width="6827" height="6827"/></svg>