<?xml version="1.0" encoding="iso-8859-1"?>
<!-- Generator: Adobe Illustrator 19.0.0, SVG Export Plug-In . SVG Version: 6.00 Build 0)  -->
<svg version="1.1" id="Capa_1" xmlns="http://www.w3.org/2000/svg" xmlns:xlink="http://www.w3.org/1999/xlink" x="0px" y="0px"
	 viewBox="0 0 487.2 487.2" style="enable-background:new 0 0 487.2 487.2;" xml:space="preserve">
<g>
	<g>
		<path d="M325.95,190c0-7.6-4.6-12.7-12.4-13.7l-3.3-0.4c-4.5-0.5-8.7-1-12.7-1.9c-14.7-3.2-28.8-9.9-44.5-20.9
			c-2.5-1.7-5.2-3.7-9.2-3.7s-6.8,1.9-9.2,3.6c-21,14.5-40,21.9-59.4,23c-5.1,0.2-13.7,2.4-13.7,14.5v19.6c0,13.2-0.1,26.4,0,39.5
			c0,5.3,0.7,10.8,2,17c3,13.2,9.9,25.2,21.3,36.8c14,14.1,31.5,25.1,54.1,33.6c1.5,0.5,3.1,0.7,4.7,0.7l0,0c2.2,0,4.4-0.5,6-1.3
			l5.7-2.5c4.7-2,9.4-4.1,14.2-6.5c17.8-9.3,31.4-20.6,41.6-34.3c9-11.9,13.9-24.6,14.5-37.7c0.4-8.8,0.4-17.7,0.4-26.4L325.95,190z
			 M305.85,254.6c-0.4,9.2-3.8,18-10.5,26.8c-8.4,11.4-19.8,20.7-34.7,28.5c-4.3,2.2-8.7,4.1-13.1,6c-1.2,0.5-2.5,1.1-3.8,1.6v-72.1
			h-62.4c-0.1-11.7-0.1-23.5,0-35.2v-14.8c20.8-2.1,40.8-10,62.4-24.6v74.5h62.4C305.95,248.4,305.95,251.5,305.85,254.6z"/>
		<path d="M385.45,434.8V328.1V97.3V52.4c0-28.8-23.6-52.4-52.4-52.4h-178.9c-28.8,0-52.4,23.6-52.4,52.4v382.4
			c0,28.8,23.6,52.4,52.4,52.4h178.9C361.95,487.2,385.45,463.6,385.45,434.8z M143.05,416.1c-7.4,0-13.5-6-13.5-13.5V84.8
			c0-7.4,6-13.5,13.5-13.5h201.3c7.4,0,13.5,6,13.5,13.5v2.4h-0.1v10.1v230.6v26.8v48c0,7.4-6,13.5-13.5,13.5h-201.2V416.1z
			 M266.25,465.2h-50.5c-7.5,0-13.6-6.1-13.6-13.6s6.1-13.6,13.6-13.6h50.5c7.5,0,13.6,6.1,13.6,13.6S273.65,465.2,266.25,465.2z"/>
	</g>
</g>
</svg>
