<?xml version="1.0" encoding="iso-8859-1"?>
<!-- Generator: Adobe Illustrator 19.0.0, SVG Export Plug-In . SVG Version: 6.00 Build 0)  -->
<svg version="1.1" id="Layer_1" xmlns="http://www.w3.org/2000/svg" xmlns:xlink="http://www.w3.org/1999/xlink" x="0px" y="0px"
	 viewBox="0 0 512 512" style="enable-background:new 0 0 512 512;" xml:space="preserve">
<g>
	<g>
		<circle cx="201.532" cy="49.021" r="8.17"/>
	</g>
</g>
<g>
	<g>
		<path d="M319.365,0H85.152C62.225,0,43.574,18.325,43.574,40.851v375.83c0,22.526,18.325,40.851,40.851,40.851h136.177
			c4.512,0,8.17-3.658,8.17-8.17s-3.658-8.17-8.17-8.17H84.426c-13.516,0-24.511-10.996-24.511-24.511V375.83h152.511
			c4.512,0,8.17-3.658,8.17-8.17c0-4.512-3.658-8.17-8.17-8.17H59.915V98.043h283.234v156.182c0,4.512,3.657,8.17,8.17,8.17
			s8.17-3.658,8.17-8.17V40.851C359.489,18.708,341.115,0,319.365,0z M343.149,81.702H59.915V40.851
			c0-13.516,11.321-24.511,25.236-24.511h234.213c12.894,0,23.785,11.225,23.785,24.511V81.702z"/>
	</g>
</g>
<g>
	<g>
		<path d="M351.319,277.787c-64.573,0-117.106,52.533-117.106,117.106S286.746,512,351.319,512s117.106-52.534,117.106-117.106
			S415.891,277.787,351.319,277.787z M351.319,495.66c-55.563,0-100.766-45.203-100.766-100.766
			c0-55.563,45.203-100.766,100.766-100.766s100.766,45.203,100.766,100.766C452.085,450.457,406.882,495.66,351.319,495.66z"/>
	</g>
</g>
<g>
	<g>
		<path d="M405.787,370.383H375.83v-29.957c0-13.516-10.996-24.511-24.511-24.511s-24.511,10.995-24.511,24.511v29.957h-29.957
			c-13.515,0-24.511,10.995-24.511,24.511s10.996,24.511,24.511,24.511h29.957v29.957c0,13.516,10.996,24.511,24.511,24.511
			s24.511-10.995,24.511-24.511v-29.957h29.957c13.515,0,24.511-10.995,24.511-24.511S419.302,370.383,405.787,370.383z
			 M405.787,403.064H367.66c-4.513,0-8.17,3.658-8.17,8.17v38.128c0,4.506-3.665,8.17-8.17,8.17s-8.17-3.665-8.17-8.17v-38.128
			c0-4.512-3.657-8.17-8.17-8.17h-38.128c-4.506,0-8.17-3.665-8.17-8.17c0-4.506,3.665-8.17,8.17-8.17h38.128
			c4.513,0,8.17-3.658,8.17-8.17v-38.128c0-4.506,3.665-8.17,8.17-8.17s8.17,3.665,8.17,8.17v38.128c0,4.512,3.657,8.17,8.17,8.17
			h38.128c4.506,0,8.17,3.665,8.17,8.17C413.957,399.399,410.292,403.064,405.787,403.064z"/>
	</g>
</g>
</svg>
