<svg xmlns="http://www.w3.org/2000/svg" xmlns:xlink="http://www.w3.org/1999/xlink" version="1.1" x="0px" y="0px" viewBox="0 0 512 640" enable-background="new 0 0 512 512" xml:space="preserve"><g><path d="M396.2,428.1H117.6V272.4h-16.4V469c0,22.6,18.4,41,41,41h229.4c22.6,0,41-18.4,41-41V272.4h-16.4V428.1z M371.6,493.6   H142.2c-13.6,0-24.6-11-24.6-24.6v-24.6h278.6V469C396.2,482.6,385.2,493.6,371.6,493.6z"/><path d="M117.6,83.9h278.6v139.3h16.4V43c0-22.6-18.4-41-41-41H142.2c-22.6,0-41,18.4-41,41v180.3h16.4V83.9z M142.2,18.4h229.4   c13.6,0,24.6,11,24.6,24.6v24.6H117.6V43C117.6,29.4,128.6,18.4,142.2,18.4z"/><rect x="207.7" y="34.8" width="98.3" height="16.4"/><rect x="240.5" y="460.8" width="32.8" height="16.4"/><rect x="175" y="34.8" width="16.4" height="16.4"/><path d="M367.3,239.6c2.7-7.4,4.3-14.7,4.3-21.6c0-37.8-29.4-68.6-65.5-68.6c-18.9,0-36.8,8.7-49.2,23.3   c-12.3-14.6-30.3-23.3-49.2-23.3c-36.1,0-65.5,30.8-65.5,68.6c0,6.8,1.6,14.1,4.4,21.6h-80V256h87.8   c27.9,49.2,102.4,108.7,102.4,108.7s75.1-59,102.8-108.7h85.7v-16.4H367.3z M158.6,218.1c0-28.8,22.1-52.2,49.2-52.2   c17.3,0,33,9.4,42,25.3l7.1,12.5l7.1-12.5c9-15.8,24.7-25.3,42-25.3c27.1,0,49.2,23.4,49.2,52.2c0,6.6-2.1,13.9-5.5,21.6h-30.6   l-19.2,19.2l-18.3-33.9l-26.6,32.8l-36-66.4l-33.8,48.3h-20.9C160.7,231.9,158.6,224.6,158.6,218.1z M256.9,343.8   C234.7,325.5,195,289,173.5,256h20.2l23.5-33.6l35,64.7l26.6-32.8l17.1,31.6l29.9-29.9h14.8C319.2,289.3,279.3,325.7,256.9,343.8z"/></g></svg>