<svg xmlns="http://www.w3.org/2000/svg" xmlns:xlink="http://www.w3.org/1999/xlink" version="1.1" x="0px" y="0px" viewBox="0 0 64 80" enable-background="new 0 0 64 64" xml:space="preserve"><g><g><g><g><path fill="#000000" d="M36.533,21.067h-5.686l-0.381,0.011h-1.258c-1.247-0.011-2.484-0.011-3.72,0      c-2.177,0.021-3.414,1.268-3.424,3.424c-0.011,3.784-0.011,7.514,0,10.97c0,1.924,1.353,3.266,3.276,3.266      c1.818,0,3.625,0.011,5.443,0.011c1.131,0,2.251,0,3.371-0.011l-0.085-4.439c0-0.053-0.021-0.37,0.116-0.74      c0.095-0.243,0.317-0.814,0.983-1.099l0.296-0.127l0.402-0.011c0.412,0,0.824,0.137,1.152,0.391      c0.285,0.222,0.571,0.455,0.845,0.687l1.86,1.543V24.291C39.714,22.473,38.351,21.088,36.533,21.067z M36.163,31.456h-3.699      v3.71h-3.149v-3.657h-3.699v-3.16h3.657v-3.71h3.181v3.688h3.71V31.456z"/></g></g><path fill="#000000" d="M41.935,39.007c-0.038,0.136-0.151,0.162-0.278,0.177c-0.576,0.072-1.15,0.151-1.723,0.226    c-0.052,0.009-0.104,0.02-0.171,0.035c0.02,0.049,0.038,0.093,0.058,0.133c0.437,0.915,0.875,1.827,1.312,2.739    c0.098,0.209,0.067,0.298-0.142,0.4c-0.318,0.155-0.634,0.314-0.951,0.472c-0.177,0.089-0.345,0.195-0.525,0.28    c-0.085,0.04-0.183,0.091-0.277,0.106c-0.114,0.018-0.133-0.04-0.181-0.138c-0.032-0.066-0.061-0.134-0.093-0.2    c-0.443-0.918-0.886-1.839-1.338-2.777c-0.22,0.211-0.429,0.405-0.634,0.605c-0.258,0.246-0.515,0.492-0.77,0.744    c-0.084,0.081-0.177,0.133-0.292,0.087c-0.119-0.046-0.139-0.151-0.142-0.266c-0.041-2.453-0.084-4.908-0.127-7.361    c0-0.043-0.012-0.093,0.003-0.13c0.035-0.078,0.064-0.191,0.125-0.217c0.072-0.029,0.197-0.006,0.261,0.043    c0.35,0.272,0.689,0.562,1.031,0.846c1.572,1.303,3.145,2.606,4.72,3.909C41.892,38.795,41.97,38.876,41.935,39.007z"/></g><path fill="#000000" d="M57.768,46.157c0.032-0.233,0.042-0.476,0.042-0.729V17.114c0-2.653-2.008-4.798-4.471-4.798h-14.46h-3.19   H10.661c-2.463,0-4.471,2.145-4.471,4.798v28.314c0,0.254,0.011,0.497,0.042,0.729H1.413v0.75c0,2.663,1.998,4.777,4.449,4.777   h25.853h0.569h25.853c2.452,0,4.449-2.114,4.449-4.777v-0.75H57.768z M53.593,46.104H37.317c-0.063,1.353-1.194,2.462-2.589,2.462   h-2.443h-0.569h-2.443c-1.395,0-2.526-1.11-2.589-2.462H10.407V16.427h25.314h3.126h14.745V46.104z"/></g></svg>