<svg xmlns="http://www.w3.org/2000/svg" xmlns:xlink="http://www.w3.org/1999/xlink" version="1.1" x="0px" y="0px" viewBox="0 0 64 80" style="enable-background:new 0 0 64 64;" xml:space="preserve"><g><g><polygon points="34,25.7 34,21.8 31,21.8 31,25.7 27.2,25.7 27.2,28.7 31,28.7 31,32.5 34,32.5 34,28.6 37.8,28.6 37.8,25.7   "/><path d="M32.6,37.1L32.6,37.1c-1.1,0-2.2-0.2-3.3-0.6c-0.9-0.3-1.7-0.7-2.5-1.3c-0.3,0-0.5,0-0.7,0l-0.1,0h0c-0.1,0-0.3,0-0.4,0    l-0.1,0c-0.7,0-1.4-0.2-2.2-0.5l-0.1,0c-1-0.4-1.6-1-1.7-1.8c-0.1-0.7,0.2-1.3,0.8-1.7l1-0.7c-0.8-2.1-0.8-4.5,0-6.6    c0.6-1.7,1.6-3.2,3-4.4c1.8-1.5,4-2.3,6.3-2.3c1.1,0,2.2,0.2,3.3,0.6c2.5,0.9,4.5,2.7,5.6,5c1.2,2.4,1.3,5.1,0.4,7.6    c-0.6,1.7-1.6,3.2-3,4.4C37.1,36.3,34.9,37.1,32.6,37.1z M27.1,33.5h0.3l0.2,0.2c0.7,0.5,1.5,0.9,2.3,1.2c0.9,0.3,1.8,0.5,2.7,0.5    h0c1.9,0,3.7-0.7,5.2-1.9c1.2-1,2-2.2,2.5-3.6c0.7-2.1,0.6-4.3-0.4-6.3c-1-2-2.6-3.5-4.7-4.2c-0.9-0.3-1.8-0.5-2.7-0.5    c-1.9,0-3.7,0.7-5.2,1.9c-1.2,1-2,2.2-2.5,3.6c-0.7,2-0.6,4.1,0.3,6.1l0.2,0.6l-0.5,0.4c-0.1,0.1-0.2,0.1-0.3,0.2l0,0l-1.3,0.9    c-0.1,0.1-0.1,0.1-0.1,0.2c0,0.1,0.2,0.3,0.6,0.4l0.1,0c0.6,0.2,1.2,0.3,1.7,0.4l0.2,0c0.1,0,0.2,0,0.3,0l0.1,0    C26.4,33.6,26.7,33.6,27.1,33.5L27.1,33.5z"/></g><path d="M62.4,53.7l-4.8-5.8c-0.3-0.3-0.8-0.6-1.3-0.6H32.1h-0.3H7.7c-0.5,0-1,0.2-1.3,0.6l-4.8,5.8c-0.7,0.8,0,2,1.3,2h29h0.3h29   C62.3,55.7,63.1,54.5,62.4,53.7z M39.7,54.4H24.3c-0.7,0-1.2-0.7-1-1.4l0.3-1.3c0.1-0.5,0.5-0.8,1-0.8h14.7c0.5,0,0.9,0.3,1,0.8   l0.3,1.3C40.9,53.7,40.4,54.4,39.7,54.4z"/><path d="M55.3,8.3H8.7c-2,0-3.6,1.6-3.6,3.6v30.5c0,2,1.6,3.6,3.6,3.6h46.7c2,0,3.6-1.6,3.6-3.6V11.9C58.9,9.9,57.3,8.3,55.3,8.3z    M32.1,9.3c0.5,0,0.8,0.4,0.8,0.8c0,0.5-0.4,0.8-0.8,0.8c-0.5,0-0.8-0.4-0.8-0.8C31.3,9.7,31.7,9.3,32.1,9.3z M55.5,15.5v23.3v3.6   H52H12H8.5v-3.6V15.5V12H12H52h3.5V15.5z"/></g></svg>