<svg xmlns="http://www.w3.org/2000/svg" xmlns:xlink="http://www.w3.org/1999/xlink" version="1.1" x="0px" y="0px" viewBox="0 0 100 125" style="enable-background:new 0 0 100 100;" xml:space="preserve"><rect style="" width="100" height="100" fill="none"/><g><path d="M93.412,76.999l-4.845-38.157c-0.707-4.421-4.042-8.224-8.183-9.859c-0.007-0.004-0.012-0.009-0.02-0.012   c-1.024-0.402-2.069-0.656-3.119-0.771c-0.044-0.005-0.088-0.016-0.133-0.02c-0.371-0.036-0.742-0.056-1.113-0.056h-9.03   c-0.281-6.262-3.175-11.153-6.97-11.893v-2.107c0-0.552-0.448-1-1-1H41c-0.552,0-1,0.448-1,1v2.107   c-3.795,0.739-6.688,5.631-6.97,11.893H24c-0.371,0-0.743,0.02-1.113,0.056c-0.044,0.004-0.087,0.014-0.131,0.019   c-1.05,0.115-2.096,0.369-3.121,0.771c-0.009,0.003-0.015,0.01-0.023,0.014c-4.139,1.638-7.473,5.446-8.184,9.89L6.592,76.967   c-0.467,2.921,0.26,5.685,2.048,7.781S13.042,88,16,88h68c2.957,0,5.571-1.155,7.359-3.252S93.875,79.888,93.412,76.999z    M42,15.125h16v4H42V15.125z M40,18.298v1.827c0,0.553,0.448,1,1,1h18c0.552,0,1-0.447,1-1v-1.827   c2.619,0.847,4.717,4.925,4.971,9.827H35.028C35.283,23.223,37.38,19.145,40,18.298z M76,30.125c0.285,0,0.568,0.018,0.851,0.042   c0.109,0.011,0.218,0.026,0.326,0.04c0.165,0.021,0.33,0.044,0.493,0.072c0.147,0.026,0.295,0.056,0.441,0.089   c0.104,0.022,0.208,0.05,0.312,0.076c0.192,0.05,0.385,0.1,0.576,0.161c0,0.001,0,0.001,0.001,0.001V40c0,1.654-1.346,3-3,3h-2v-2   c0-0.553-0.448-1-1-1h-6c-0.553,0-1,0.447-1,1v2H34v-2c0-0.553-0.448-1-1-1h-6c-0.552,0-1,0.447-1,1v2h-2c-1.654,0-3-1.346-3-3   v-9.394c0.002-0.001,0.003-0.001,0.005-0.002c0.189-0.061,0.378-0.11,0.568-0.159c0.105-0.027,0.211-0.055,0.317-0.078   c0.146-0.032,0.292-0.062,0.438-0.088c0.164-0.028,0.329-0.052,0.494-0.072c0.108-0.014,0.217-0.029,0.326-0.04   c0.282-0.024,0.566-0.042,0.851-0.042H76z M68,44v-2h4v2v2h-4V44z M28,44v-2h4v2v2h-4V44z M89.838,83.45   C88.436,85.095,86.362,86,84,86H16c-2.362,0-4.436-0.905-5.837-2.55c-1.402-1.644-1.968-3.834-1.59-6.199l4.835-38.093   c0.52-3.248,2.726-6.093,5.593-7.685V40c0,2.757,2.243,5,5,5h2v2c0,0.552,0.448,1,1,1h6c0.552,0,1-0.448,1-1v-2h32v2   c0,0.552,0.447,1,1,1h6c0.552,0,1-0.448,1-1v-2h2c2.757,0,5-2.243,5-5v-8.527c2.867,1.589,5.071,4.426,5.588,7.653l4.845,38.157   C91.806,79.616,91.239,81.807,89.838,83.45z"/><path d="M62,64h-7v-7c0-0.553-0.448-1-1-1h-8c-0.552,0-1,0.447-1,1v7h-7c-0.552,0-1,0.447-1,1v8c0,0.552,0.448,1,1,1h7v7   c0,0.552,0.448,1,1,1h8c0.552,0,1-0.448,1-1v-7h7c0.552,0,1-0.448,1-1v-8C63,64.447,62.552,64,62,64z M54,72c-0.553,0-1,0.447-1,1   v0.586l-6,6v-3.172L57.414,66h3.172l-6,6H54z M46,72h-0.586L53,64.414V65c0,0.552,0.447,1,1,1h0.586L47,73.586V73   C47,72.447,46.552,72,46,72z M39.414,72l6-6H46c0.552,0,1-0.448,1-1v-0.586l6-6v3.172L42.585,72H39.414z M50.585,58L47,61.586V58   H50.585z M42.585,66L39,69.586V66H42.585z M49.414,80L53,76.414V80H49.414z M57.414,72L61,68.414V72H57.414z"/></g></svg>