<svg xmlns="http://www.w3.org/2000/svg" xmlns:xlink="http://www.w3.org/1999/xlink" version="1.1" x="0px" y="0px" viewBox="0 0 100 125" style="enable-background:new 0 0 100 100;" xml:space="preserve"><path d="M78.4,54.3v-1.9c0-7-5.7-12.7-12.8-12.7c-7,0-12.7,5.7-12.7,12.7v20.1c0,6.1-5,11.2-11.1,11.2c-6.1,0-11.2-5-11.2-11.2v-4.7  c0.2-0.1,0.4-0.3,0.4-0.6c0.2-2,0.3-4.1,1-6c0.7-2.2,2.1-4,3.4-5.9c1.7-2.5,3.5-4.9,5.3-7.4c0.4-0.5,0.4-1.2,0.3-1.7  c1.7-2.9,7.9-13.9,7.7-22.4c-0.3-9.9-6.3-10.8-10.3-10.9c-0.4-0.5-1.2-0.8-2.1-0.8c-1.4,0-2.5,0.8-2.5,1.7c0,0.9,1.1,1.7,2.5,1.7  c1.1,0,2-0.5,2.3-1.1c4.3,0.2,8.3,1.6,8.5,9.4c0.2,7.9-5.7,18.6-7.4,21.5c-0.5-0.1-1.2,0.1-1.7,1c-1.5,2.2-3,4.4-4.6,6.6  c-0.8,1.1-1.7,2.4-3.2,2.4c-1.5-0.1-2.4-1.3-3.2-2.4c-1.6-2.1-3.1-4.4-4.6-6.6c-0.7-1.1-1.6-1-2.1-0.9l-0.2,0.1  c-1.5-2.6-7.8-13.6-7.5-21.7c0.2-7.9,4.2-9.3,8.6-9.4c0.3,0.7,1.3,1.1,2.3,1.1c1.4,0,2.5-0.8,2.5-1.7c0-0.9-1.1-1.7-2.5-1.7  c-0.9,0-1.6,0.3-2.1,0.8c-4,0.1-10.1,0.9-10.4,10.9C10.8,33,18,45,19.1,46.7c-0.1,0.4,0,0.8,0.3,1.2c1.8,2.4,3.5,4.9,5.3,7.4  c1.3,1.9,2.6,3.7,3.4,5.9c0.6,2,0.8,4,1,6c0,0.1,0.1,0.3,0.1,0.4v4.9c0,7,5.7,12.7,12.7,12.7c7,0,12.6-5.7,12.6-12.7V52.4  c0-6.1,5-11.2,11.2-11.2c6.2,0,11.2,5,11.2,11.2v1.9c-3.6,0.4-6.4,3.4-6.4,7.2v9.6c0,4,3.2,7.2,7.2,7.2c4,0,7.2-3.2,7.2-7.2v-9.6  C84.9,57.7,82,54.6,78.4,54.3z M83.4,61.4v1.4h-5v-1.3c0.3-0.2,0.5-0.5,0.5-0.9v-2.3c0-0.4-0.2-0.7-0.5-0.9v-1.6  C81.2,56.1,83.4,58.5,83.4,61.4z M76.9,55.8v1.6c-0.3,0.2-0.5,0.5-0.5,0.9v2.3c0,0.4,0.2,0.7,0.5,0.9v1.3H72v-1.3  C72,58.5,74.1,56.1,76.9,55.8z M77.7,76.7c-3.2,0-5.8-2.5-5.8-5.7v-6.8h11.4V71C83.4,74.2,80.9,76.7,77.7,76.7z"/></svg>